<?xml version="1.0" encoding="UTF-8"?>
<!-- Generator: visioncortex VTracer -->
<svg id="svg" version="1.1" xmlns="http://www.w3.org/2000/svg" style="display: block;" viewBox="0 0 512 512"><path d="M0 0 C10.20892855 6.26534578 13.57135964 16.83264243 16.3984375 27.93359375 C25.17138811 65.41263393 29.48308449 104.48877592 29.6484375 142.93359375 C29.6538858 143.70939789 29.65933411 144.48520203 29.66494751 145.28451538 C29.72528867 156.76934734 28.99130825 166.8521158 24.3984375 177.49609375 C20.10261784 187.4731349 19.18636762 196.1156262 19.10760498 206.99917603 C18.62996997 253.77444341 6.2018743 310.06554596 -22.6015625 347.93359375 C-7.85104323 349.15152653 8.08854991 345.08218313 21.3984375 338.93359375 C22.3265625 338.5159375 23.2546875 338.09828125 24.2109375 337.66796875 C43.0230003 328.36882407 53.04837632 311.53936325 59.62109375 292.3671875 C63.68918574 278.02832334 64.29892774 262.9192973 65.65478516 248.13916016 C67.52481383 228.24599192 67.52481383 228.24599192 73.5859375 219.93359375 C80.93156244 214.71003823 87.92854934 214.39398449 96.8046875 215.24609375 C104.30661541 216.68124518 108.60645038 220.53716192 113.1484375 226.49609375 C125.7480769 246.03720116 126.98649706 270.4927891 122.30541992 292.70043945 C120.36622806 300.93733357 117.27186846 308.4325079 113.3984375 315.93359375 C113.08358398 316.54960449 112.76873047 317.16561523 112.44433594 317.80029297 C108.02041655 326.31735038 102.7176035 333.71809215 96.3984375 340.93359375 C95.77453125 341.701875 95.150625 342.47015625 94.5078125 343.26171875 C73.79231848 368.15512753 39.56656936 378.22037446 8.4609375 381.18359375 C-11.68077953 382.86835879 -32.66182326 382.82515663 -52.4765625 378.49609375 C-59.17306505 377.36835376 -64.70527902 379.43308061 -70.9765625 381.49609375 C-96.51066154 389.75969772 -125.47911568 391.11157949 -152.1328125 391.06640625 C-153.5808514 391.06708363 -155.02889019 391.06805721 -156.47692871 391.06930542 C-159.49211728 391.07076583 -162.5072759 391.06868446 -165.52246094 391.06396484 C-169.31294261 391.05830892 -173.10335313 391.06158719 -176.89383221 391.06746101 C-180.59849876 391.07216274 -184.30314613 391.07041545 -188.0078125 391.06640625 C-188.72916571 391.0658939 -189.45051891 391.06538155 -190.19373131 391.06485367 C-200.30089091 391.04945321 -210.38012948 390.83163127 -220.46069336 390.03030396 C-228.70006433 389.49760319 -234.38062476 391.98714328 -241.6015625 395.93359375 C-252.86379006 399.53233212 -262.86905533 396.29320998 -272.9140625 391.12109375 C-274.11640654 390.5289772 -275.32038297 389.94016509 -276.52587891 389.35449219 C-278.99548954 388.15379277 -281.45980068 386.94312989 -283.92138672 385.72607422 C-289.70209757 382.88859756 -295.58547243 380.28207664 -301.4765625 377.68359375 C-302.50950439 377.21848389 -303.54244629 376.75337402 -304.60668945 376.27416992 C-311.35347076 373.16230758 -311.35347076 373.16230758 -318.6015625 371.93359375 C-320.60339675 372.71995221 -320.60339675 372.71995221 -322.2890625 374.12109375 C-334.0262636 382.08641548 -347.68951026 383.22559104 -361.42578125 380.7265625 C-369.2070708 378.78363288 -377.13143289 375.99508872 -382.6015625 369.93359375 C-384.16872042 365.92863461 -383.80052041 364.39782888 -382.1015625 360.43359375 C-379.61959041 356.50963083 -376.25631706 353.73625665 -372.6015625 350.93359375 C-374.22064138 347.507171 -376.21349781 344.63757311 -378.48046875 341.6171875 C-380.98244846 337.85985909 -380.90355185 334.31243934 -380.6015625 329.93359375 C-378.47687406 325.12508832 -375.41487997 322.03509059 -370.48022461 320.10302734 C-362.74728342 317.7546642 -355.31737629 317.53530729 -347.31958008 317.65234375 C-345.14321933 317.68389593 -342.96758407 317.69336841 -340.79101562 317.69921875 C-329.31742093 317.7745293 -329.31742093 317.7745293 -325.6015625 318.93359375 C-325.50875 317.75796875 -325.50875 317.75796875 -325.4140625 316.55859375 C-320.98112992 296.78089453 -301.29754022 278.82340634 -287.81640625 264.39453125 C-285.50565318 261.94606223 -285.50565318 261.94606223 -283.6015625 258.93359375 C-284.20742188 258.16660156 -284.81328125 257.39960938 -285.4375 256.609375 C-298.10152955 240.05225337 -309.36731251 217.98163642 -310.07788086 196.77246094 C-310.42763988 194.74587114 -310.42763988 194.74587114 -312.48168945 193.81420898 C-313.18124756 193.52360596 -313.88080566 193.23300293 -314.6015625 192.93359375 C-316.38965097 191.41482916 -318.13606977 189.84640339 -319.8515625 188.24609375 C-323.06775563 185.25951427 -326.30121526 182.31787188 -329.6640625 179.49609375 C-341.67830922 168.99892096 -363.51281728 146.55388665 -364.79296875 129.36328125 C-362.7604037 125.21818137 -358.72330303 124.51015436 -354.5390625 123.05859375 C-353.60819824 122.72126221 -352.67733398 122.38393066 -351.71826172 122.03637695 C-340.83081559 118.17072802 -329.76719263 114.8904753 -318.6015625 111.93359375 C-317.87211426 111.73862305 -317.14266602 111.54365234 -316.39111328 111.34277344 C-309.5138678 109.56262031 -303.26824259 108.86633916 -296.20825195 109.19726562 C-288.76077589 109.76863849 -288.76077589 109.76863849 -282.00390625 107.2578125 C-280.05539405 105.01639227 -280.05539405 105.01639227 -278.390625 102.5 C-267.55422632 86.95520976 -244.67513904 77.36836895 -227.0390625 72.18359375 C-226.3071167 71.96727295 -225.5751709 71.75095215 -224.82104492 71.52807617 C-220.39769875 70.34194592 -216.31732138 69.81554841 -211.734375 69.734375 C-201.39453628 69.76136649 -201.39453628 69.76136649 -192.68896484 65.02490234 C-189.12928896 59.79517494 -186.9611206 53.98050243 -184.79638672 48.06787109 C-182.82299639 42.89124971 -180.34956354 37.96743483 -177.9140625 32.99609375 C-177.00566608 31.0889436 -176.09809273 29.18140117 -175.19140625 27.2734375 C-166.16325542 8.49528667 -166.16325542 8.49528667 -163.6015625 5.93359375 C-159.5391713 5.35240494 -157.96170253 5.68117211 -154.55859375 8.06640625 C-153.49288276 9.04504496 -152.44548858 10.04388498 -151.4140625 11.05859375 C-150.85235352 11.59629395 -150.29064453 12.13399414 -149.71191406 12.68798828 C-130.98684716 31.05925386 -113.37018311 57.57119872 -112.0390625 84.37109375 C-112.03777344 85.40105469 -112.03648437 86.43101562 -112.03515625 87.4921875 C-111.89207031 88.29785156 -111.74898438 89.10351562 -111.6015625 89.93359375 C-109.84473185 91.1231009 -109.84473185 91.1231009 -107.6015625 91.93359375 C-89.47083415 106.24083517 -78.2534903 127.16640338 -70.51171875 148.5546875 C-69.81751341 150.85355874 -69.81751341 150.85355874 -68.6015625 151.93359375 C-67.77978516 150.67869141 -67.77978516 150.67869141 -66.94140625 149.3984375 C-60.20120119 139.40128876 -51.86776771 128.14117644 -41.5291748 121.62802124 C-39.42803248 120.1098993 -39.42803248 120.1098993 -39.09603882 117.81404114 C-39.09318878 116.99344711 -39.09033875 116.17285309 -39.08740234 115.32739258 C-39.06737152 113.91938133 -39.06737152 113.91938133 -39.04693604 112.48292542 C-39.05207214 111.46246628 -39.05720825 110.44200714 -39.0625 109.390625 C-39.05152283 108.32653915 -39.04054565 107.26245331 -39.02923584 106.16612244 C-39.00705096 103.88038528 -38.99339685 101.59455268 -38.98736572 99.30871582 C-38.96933171 93.3615679 -38.88357028 87.41534901 -38.8046875 81.46875 C-38.79063873 80.29500824 -38.77658997 79.12126648 -38.76211548 77.91195679 C-38.00191548 19.57211035 -38.00191548 19.57211035 -24.6640625 5.49609375 C-17.60149995 -0.98993308 -9.34461939 -3.83045209 0 0 Z " transform="translate(385.6015625,58.06640625)" style="fill: #FEC162;"/><path d="M0 0 C6.03507809 2.66936146 8.46670181 7.17513749 11 13 C12.61365314 17.26201517 13.84103688 21.59722907 15 26 C15.19062012 26.69528809 15.38124023 27.39057617 15.57763672 28.10693359 C20.35930096 45.85033715 22.33587557 64.06719286 24.44775391 82.27734375 C24.78774877 85.20894037 25.13875994 88.13851234 25.50927734 91.06640625 C27.47274333 106.67646954 28.29654075 122.09431331 28.375 137.8125 C28.38294586 138.65723877 28.39089172 139.50197754 28.39907837 140.37231445 C28.52282322 157.38795952 28.52282322 157.38795952 25 165 C24.56558594 166.10085937 24.13117188 167.20171875 23.68359375 168.3359375 C22.8543163 170.35843861 22.02099381 172.37928596 21.18359375 174.3984375 C18.17444431 183.55499125 17.80719772 192.40683462 17.76629639 201.98876953 C17.40495106 247.97030126 4.42604312 304.18506821 -24 341 C-24.40154297 341.5273877 -24.80308594 342.05477539 -25.21679688 342.59814453 C-42.57384098 365.14272625 -67.8010766 372.81472599 -95.16946411 376.63557434 C-118.07112022 379.58411534 -140.79314897 380.44278661 -163.85552979 380.26428223 C-166.83615616 380.24499335 -169.81672185 380.24110908 -172.79740238 380.2375679 C-176.43918039 380.23236715 -180.08090699 380.21795407 -183.72265625 380.203125 C-185.02396988 380.19887512 -186.32528351 380.19462524 -187.66603088 380.19024658 C-196.80849919 380.12018401 -205.88429641 379.65103785 -215 379 C-213.4375 377.046875 -211.875 375.09375 -210.3125 373.140625 C-208.65152802 370.85015251 -208.65152802 370.85015251 -209 367 C-212.76530118 367.5449778 -214.14942111 368.95814528 -216.5 371.875 C-220.93329638 377.33601509 -225.56654458 379.95056041 -231.9375 382.6875 C-232.62134766 383.00783203 -233.30519531 383.32816406 -234.00976562 383.65820312 C-241.71804757 386.95372202 -249.8697402 387.73206383 -257.78979492 384.66430664 C-261.25016668 383.17379123 -264.6145286 381.50676501 -267.96762085 379.7902832 C-271.67945421 377.89291274 -275.43468949 376.08440846 -279.18359375 374.26171875 C-279.93314835 373.894487 -280.68270294 373.52725525 -281.45497131 373.14889526 C-296.35321246 365.88058425 -311.88871655 359.9802393 -327.5 354.4375 C-328.40129639 354.11458984 -329.30259277 353.79167969 -330.23120117 353.45898438 C-335.6414705 351.59438543 -340.9243569 350.43201262 -346.56298828 349.4855957 C-355.08270295 347.78796873 -362.78086185 341.78880376 -368 335 C-369.30880253 332.22298951 -370.01252173 330.51339105 -369.9375 327.4375 C-368.63759198 324.05773914 -367.05052518 322.92315718 -364 321 C-356.78132534 318.58079772 -349.90821916 318.6027844 -342.375 318.625 C-341.68570404 318.62554382 -340.99640808 318.62608765 -340.28622437 318.62664795 C-328.15890913 318.67054487 -316.74287846 319.89908716 -305 323 C-303.74703125 323.32145996 -303.74703125 323.32145996 -302.46875 323.64941406 C-286.81691189 327.74728479 -272.02377025 333.75596618 -258.06640625 341.96875 C-255.93752399 343.22326845 -255.93752399 343.22326845 -253 343 C-253 341.68 -253 340.36 -253 339 C-262.49750023 333.83489028 -271.89009511 328.87643752 -282 325 C-280.21849454 319.17037884 -277.63229404 314.84872974 -274 310 C-273.54238281 309.38898438 -273.08476562 308.77796875 -272.61328125 308.1484375 C-264.00332637 298.25037914 -248.88948907 293.19170657 -236.1796875 292.16796875 C-219.96402013 291.31136716 -204.94411716 292.89539718 -189 296 C-189.33 294.68 -189.66 293.36 -190 292 C-192.04111542 291.51849058 -194.08291932 291.03989917 -196.125 290.5625 C-197.83042969 290.16224609 -197.83042969 290.16224609 -199.5703125 289.75390625 C-220.25876648 285.20621648 -246.82471201 285.49825874 -265.546875 296.49609375 C-276.00861473 303.35962906 -281.93692504 311.66561629 -287 323 C-287.95253662 322.73521851 -287.95253662 322.73521851 -288.92431641 322.46508789 C-291.82367749 321.66106117 -294.72431662 320.86174252 -297.625 320.0625 C-298.62402344 319.78470703 -299.62304688 319.50691406 -300.65234375 319.22070312 C-305.41580891 317.91153886 -310.09357067 316.66144696 -315 316 C-314.54077122 295.79393348 -287.67277758 273.12765839 -275 259 C-271.60842209 259.58629027 -270.00351748 260.67584816 -267.5625 263.0625 C-252.46527043 276.65279723 -233.95245805 282.4092953 -214 282.3125 C-212.20477905 282.30512817 -212.20477905 282.30512817 -210.37329102 282.29760742 C-200.93752928 282.17349454 -192.14633871 281.26076659 -183 279 C-182.30745117 278.83902832 -181.61490234 278.67805664 -180.90136719 278.51220703 C-169.50928246 275.83035262 -158.82705605 271.73078684 -148.05859375 267.18359375 C-147.21304932 266.82668457 -146.36750488 266.46977539 -145.49633789 266.10205078 C-143.81760148 265.36094407 -142.1572601 264.57684827 -140.51733398 263.75341797 C-134.61722192 260.83589373 -134.61722192 260.83589373 -131.35546875 261.703125 C-130.64003906 262.21359375 -129.92460937 262.7240625 -129.1875 263.25 C-123.59609943 266.56989409 -118.39891902 267.08609658 -112 266 C-107.13411675 263.71058443 -105.75337151 261.31471866 -103.734375 256.53125 C-102.95583909 253.84778581 -102.94851687 251.71758926 -103 248.9375 C-102.78652673 245.22768081 -102.30224771 244.27310407 -99.48828125 241.73046875 C-96.38932697 239.67593449 -93.23870184 237.82450854 -90 236 C-87.97625455 234.69873567 -85.98925228 233.3540038 -84 232 C-83.91697632 232.98226562 -83.91697632 232.98226562 -83.83227539 233.984375 C-83.57731944 236.98972466 -83.31992685 239.99486102 -83.0625 243 C-82.97548828 244.02996094 -82.88847656 245.05992187 -82.79882812 246.12109375 C-82.31334981 251.76702674 -81.74940134 257.38286561 -81 263 C-79.68 262.67 -78.36 262.34 -77 262 C-77.144375 260.7625 -77.28875 259.525 -77.4375 258.25 C-82.32256086 213.80203077 -76.57580548 171.46382038 -48.0859375 135.58984375 C-44.13432675 130.90745568 -39.70849175 126.90725681 -35 123 C-34.05125 122.195625 -33.1025 121.39125 -32.125 120.5625 C-30 119 -30 119 -28 119 C-28.00444122 118.30605133 -28.00888245 117.61210266 -28.01345825 116.89712524 C-28.05422328 110.22411427 -28.08432309 103.55114004 -28.10362434 96.87803078 C-28.11388204 93.4506952 -28.12769201 90.02346584 -28.15087891 86.59619141 C-28.26323211 68.62628848 -27.74040634 50.88998246 -26 33 C-25.92447906 32.21489548 -25.84895813 31.42979095 -25.77114868 30.62089539 C-24.73006327 20.05857646 -22.36785637 11.11267792 -14 4 C-12.88625 2.8553125 -12.88625 2.8553125 -11.75 1.6875 C-7.8068396 -0.73216661 -4.50943121 -0.75822295 0 0 Z " transform="translate(381,63)" style="fill: #FEC262;"/><path d="M0 0 C10.20892855 6.26534578 13.57135964 16.83264243 16.3984375 27.93359375 C25.17138811 65.41263393 29.48308449 104.48877592 29.6484375 142.93359375 C29.6538858 143.70939789 29.65933411 144.48520203 29.66494751 145.28451538 C29.72528867 156.76934734 28.99130825 166.8521158 24.3984375 177.49609375 C20.10261784 187.4731349 19.18636762 196.1156262 19.10760498 206.99917603 C18.62996997 253.77444341 6.2018743 310.06554596 -22.6015625 347.93359375 C-7.85104323 349.15152653 8.08854991 345.08218313 21.3984375 338.93359375 C22.3265625 338.5159375 23.2546875 338.09828125 24.2109375 337.66796875 C43.0230003 328.36882407 53.04837632 311.53936325 59.62109375 292.3671875 C63.68918574 278.02832334 64.29892774 262.9192973 65.65478516 248.13916016 C67.52481383 228.24599192 67.52481383 228.24599192 73.5859375 219.93359375 C80.93156244 214.71003823 87.92854934 214.39398449 96.8046875 215.24609375 C104.30661541 216.68124518 108.60645038 220.53716192 113.1484375 226.49609375 C125.7480769 246.03720116 126.98649706 270.4927891 122.30541992 292.70043945 C120.36622806 300.93733357 117.27186846 308.4325079 113.3984375 315.93359375 C113.08358398 316.54960449 112.76873047 317.16561523 112.44433594 317.80029297 C108.02041655 326.31735038 102.7176035 333.71809215 96.3984375 340.93359375 C95.77453125 341.701875 95.150625 342.47015625 94.5078125 343.26171875 C73.79231848 368.15512753 39.56656936 378.22037446 8.4609375 381.18359375 C-11.68077953 382.86835879 -32.66182326 382.82515663 -52.4765625 378.49609375 C-59.17306505 377.36835376 -64.70527902 379.43308061 -70.9765625 381.49609375 C-96.51066154 389.75969772 -125.47911568 391.11157949 -152.1328125 391.06640625 C-153.5808514 391.06708363 -155.02889019 391.06805721 -156.47692871 391.06930542 C-159.49211728 391.07076583 -162.5072759 391.06868446 -165.52246094 391.06396484 C-169.31294261 391.05830892 -173.10335313 391.06158719 -176.89383221 391.06746101 C-180.59849876 391.07216274 -184.30314613 391.07041545 -188.0078125 391.06640625 C-188.72916571 391.0658939 -189.45051891 391.06538155 -190.19373131 391.06485367 C-200.30089091 391.04945321 -210.38012948 390.83163127 -220.46069336 390.03030396 C-228.70006433 389.49760319 -234.38062476 391.98714328 -241.6015625 395.93359375 C-252.86379006 399.53233212 -262.86905533 396.29320998 -272.9140625 391.12109375 C-274.11640654 390.5289772 -275.32038297 389.94016509 -276.52587891 389.35449219 C-278.99548954 388.15379277 -281.45980068 386.94312989 -283.92138672 385.72607422 C-289.70209757 382.88859756 -295.58547243 380.28207664 -301.4765625 377.68359375 C-302.50950439 377.21848389 -303.54244629 376.75337402 -304.60668945 376.27416992 C-311.35347076 373.16230758 -311.35347076 373.16230758 -318.6015625 371.93359375 C-320.60339675 372.71995221 -320.60339675 372.71995221 -322.2890625 374.12109375 C-334.0262636 382.08641548 -347.68951026 383.22559104 -361.42578125 380.7265625 C-369.2070708 378.78363288 -377.13143289 375.99508872 -382.6015625 369.93359375 C-384.16872042 365.92863461 -383.80052041 364.39782888 -382.1015625 360.43359375 C-379.61959041 356.50963083 -376.25631706 353.73625665 -372.6015625 350.93359375 C-374.22064138 347.507171 -376.21349781 344.63757311 -378.48046875 341.6171875 C-380.98244846 337.85985909 -380.90355185 334.31243934 -380.6015625 329.93359375 C-378.47687406 325.12508832 -375.41487997 322.03509059 -370.48022461 320.10302734 C-362.74728342 317.7546642 -355.31737629 317.53530729 -347.31958008 317.65234375 C-345.14321933 317.68389593 -342.96758407 317.69336841 -340.79101562 317.69921875 C-329.31742093 317.7745293 -329.31742093 317.7745293 -325.6015625 318.93359375 C-325.50875 317.75796875 -325.50875 317.75796875 -325.4140625 316.55859375 C-320.98112992 296.78089453 -301.29754022 278.82340634 -287.81640625 264.39453125 C-285.50565318 261.94606223 -285.50565318 261.94606223 -283.6015625 258.93359375 C-284.20742188 258.16660156 -284.81328125 257.39960938 -285.4375 256.609375 C-298.10152955 240.05225337 -309.36731251 217.98163642 -310.07788086 196.77246094 C-310.42763988 194.74587114 -310.42763988 194.74587114 -312.48168945 193.81420898 C-313.18124756 193.52360596 -313.88080566 193.23300293 -314.6015625 192.93359375 C-316.38965097 191.41482916 -318.13606977 189.84640339 -319.8515625 188.24609375 C-323.06775563 185.25951427 -326.30121526 182.31787188 -329.6640625 179.49609375 C-341.67830922 168.99892096 -363.51281728 146.55388665 -364.79296875 129.36328125 C-362.7604037 125.21818137 -358.72330303 124.51015436 -354.5390625 123.05859375 C-353.60819824 122.72126221 -352.67733398 122.38393066 -351.71826172 122.03637695 C-340.83081559 118.17072802 -329.76719263 114.8904753 -318.6015625 111.93359375 C-317.87211426 111.73862305 -317.14266602 111.54365234 -316.39111328 111.34277344 C-309.5138678 109.56262031 -303.26824259 108.86633916 -296.20825195 109.19726562 C-288.76077589 109.76863849 -288.76077589 109.76863849 -282.00390625 107.2578125 C-280.05539405 105.01639227 -280.05539405 105.01639227 -278.390625 102.5 C-267.55422632 86.95520976 -244.67513904 77.36836895 -227.0390625 72.18359375 C-226.3071167 71.96727295 -225.5751709 71.75095215 -224.82104492 71.52807617 C-220.39769875 70.34194592 -216.31732138 69.81554841 -211.734375 69.734375 C-201.39453628 69.76136649 -201.39453628 69.76136649 -192.68896484 65.02490234 C-189.12928896 59.79517494 -186.9611206 53.98050243 -184.79638672 48.06787109 C-182.82299639 42.89124971 -180.34956354 37.96743483 -177.9140625 32.99609375 C-177.00566608 31.0889436 -176.09809273 29.18140117 -175.19140625 27.2734375 C-166.16325542 8.49528667 -166.16325542 8.49528667 -163.6015625 5.93359375 C-159.5391713 5.35240494 -157.96170253 5.68117211 -154.55859375 8.06640625 C-153.49288276 9.04504496 -152.44548858 10.04388498 -151.4140625 11.05859375 C-150.85235352 11.59629395 -150.29064453 12.13399414 -149.71191406 12.68798828 C-130.98684716 31.05925386 -113.37018311 57.57119872 -112.0390625 84.37109375 C-112.03777344 85.40105469 -112.03648437 86.43101562 -112.03515625 87.4921875 C-111.89207031 88.29785156 -111.74898438 89.10351562 -111.6015625 89.93359375 C-109.84473185 91.1231009 -109.84473185 91.1231009 -107.6015625 91.93359375 C-89.47083415 106.24083517 -78.2534903 127.16640338 -70.51171875 148.5546875 C-69.81751341 150.85355874 -69.81751341 150.85355874 -68.6015625 151.93359375 C-67.77978516 150.67869141 -67.77978516 150.67869141 -66.94140625 149.3984375 C-60.20120119 139.40128876 -51.86776771 128.14117644 -41.5291748 121.62802124 C-39.42803248 120.1098993 -39.42803248 120.1098993 -39.09603882 117.81404114 C-39.09318878 116.99344711 -39.09033875 116.17285309 -39.08740234 115.32739258 C-39.06737152 113.91938133 -39.06737152 113.91938133 -39.04693604 112.48292542 C-39.05207214 111.46246628 -39.05720825 110.44200714 -39.0625 109.390625 C-39.05152283 108.32653915 -39.04054565 107.26245331 -39.02923584 106.16612244 C-39.00705096 103.88038528 -38.99339685 101.59455268 -38.98736572 99.30871582 C-38.96933171 93.3615679 -38.88357028 87.41534901 -38.8046875 81.46875 C-38.79063873 80.29500824 -38.77658997 79.12126648 -38.76211548 77.91195679 C-38.00191548 19.57211035 -38.00191548 19.57211035 -24.6640625 5.49609375 C-17.60149995 -0.98993308 -9.34461939 -3.83045209 0 0 Z M-23.36328125 13.3125 C-27.96020712 20.60302408 -29.7893808 27.76548421 -30.6640625 36.24609375 C-30.74205078 36.92220703 -30.82003906 37.59832031 -30.90039062 38.29492188 C-32.86356169 56.48264715 -32.73039337 74.71547975 -32.67022705 92.98327637 C-32.65982953 96.48363631 -32.65539495 99.98400393 -32.65039062 103.484375 C-32.63980079 110.30079948 -32.62283029 117.1171944 -32.6015625 123.93359375 C-33.2210376 124.23160889 -33.8405127 124.52962402 -34.47875977 124.83666992 C-40.25359453 127.82072197 -45.1577217 133.27298023 -49.6015625 137.93359375 C-50.26929688 138.61808594 -50.93703125 139.30257812 -51.625 140.0078125 C-57.68532396 146.4301012 -62.28872262 153.24280361 -66.6015625 160.93359375 C-67.22160156 162.03703125 -67.84164063 163.14046875 -68.48046875 164.27734375 C-72.89787316 172.59694773 -75.70882265 180.91943752 -78.09033203 190.00146484 C-78.5370887 191.68992344 -79.01769802 193.36935137 -79.50390625 195.046875 C-85.96243207 218.27828875 -84.36232542 243.26991155 -81.6015625 266.93359375 C-82.9215625 267.26359375 -84.2415625 267.59359375 -85.6015625 267.93359375 C-87.1303915 257.60286574 -88.08088459 247.36085393 -88.6015625 236.93359375 C-89.46265625 237.52269531 -90.32375 238.11179687 -91.2109375 238.71875 C-93.35681418 240.1566891 -95.45416628 241.39064876 -97.7421875 242.6171875 C-104.11593802 246.08331245 -104.11593802 246.08331245 -107.6796875 252.09765625 C-107.95878502 254.34594187 -108.17603099 256.60284964 -108.328125 258.86328125 C-108.71588926 263.21731989 -109.98602884 265.47185803 -112.6015625 268.93359375 C-117.43598544 272.04370391 -123.07942927 271.68292968 -128.6015625 270.93359375 C-130.36457155 269.99454293 -132.09547456 268.99273361 -133.7890625 267.93359375 C-136.53671018 266.52221214 -138.42394946 265.65292071 -141.49658203 266.38525391 C-146.02094844 268.12439833 -150.2403394 270.47809687 -154.48339844 272.80566406 C-178.8426185 285.77703298 -213.12127399 292.11457904 -240.0390625 285.24609375 C-242.2421266 284.52093939 -244.43190408 283.75330261 -246.6015625 282.93359375 C-247.61476563 282.59457031 -248.62796875 282.25554687 -249.671875 281.90625 C-258.76896356 278.56906738 -268.19585863 272.77827174 -274.7578125 265.5625 C-276.43270732 263.73915388 -276.43270732 263.73915388 -278.52734375 263.84765625 C-281.55006459 265.430173 -283.573924 267.7768951 -285.7890625 270.30859375 C-286.27028564 270.84661621 -286.75150879 271.38463867 -287.24731445 271.93896484 C-291.86197048 277.13778347 -296.25470758 282.51006867 -300.6015625 287.93359375 C-301.26800781 288.73152344 -301.93445313 289.52945312 -302.62109375 290.3515625 C-314.57411699 304.24507833 -314.57411699 304.24507833 -319.6015625 320.93359375 C-318.96653809 321.07458496 -318.33151367 321.21557617 -317.67724609 321.36083984 C-314.77628551 322.00684985 -311.87642622 322.65767856 -308.9765625 323.30859375 C-307.97753906 323.5303125 -306.97851562 323.75203125 -305.94921875 323.98046875 C-301.07122165 325.07882571 -296.3077527 326.21495091 -291.6015625 327.93359375 C-291.27285156 327.18335938 -290.94414062 326.433125 -290.60546875 325.66015625 C-284.09619991 311.65376204 -274.65316677 302.34560387 -260.2265625 296.62109375 C-249.67106562 293.20840687 -238.87690565 292.57126429 -227.8515625 292.62109375 C-226.63742676 292.62310791 -225.42329102 292.62512207 -224.17236328 292.62719727 C-202.73842573 292.86516214 -202.73842573 292.86516214 -194.6015625 296.93359375 C-193.9765625 298.99609375 -193.9765625 298.99609375 -193.6015625 300.93359375 C-194.22385742 300.81242187 -194.84615234 300.69125 -195.48730469 300.56640625 C-220.5987443 295.77449851 -247.58595413 292.84453439 -270.25390625 307.25 C-277.90062116 312.73375062 -282.78344842 319.34283707 -286.6015625 327.93359375 C-286.6015625 328.59359375 -286.6015625 329.25359375 -286.6015625 329.93359375 C-286.04283447 330.18004639 -285.48410645 330.42649902 -284.90844727 330.68041992 C-282.32503056 331.82294656 -279.74455639 332.97198179 -277.1640625 334.12109375 C-276.28556641 334.50845703 -275.40707031 334.89582031 -274.50195312 335.29492188 C-268.68941471 337.8901881 -263.11091576 340.74485452 -257.6015625 343.93359375 C-257.6015625 345.25359375 -257.6015625 346.57359375 -257.6015625 347.93359375 C-260.77673143 347.26614082 -263.39685295 346.14337645 -266.28515625 344.67578125 C-283.47385635 336.10030329 -300.63389981 329.31288998 -319.6015625 325.93359375 C-320.35840332 325.76657959 -321.11524414 325.59956543 -321.89501953 325.42749023 C-329.31950006 323.8779075 -336.62106898 323.59340798 -344.18164062 323.61791992 C-346.23100066 323.62110064 -348.27893993 323.59745251 -350.328125 323.57226562 C-358.71478157 323.53206284 -366.10406284 323.93526065 -373.2265625 328.68359375 C-374.85917175 330.95780654 -374.85917175 330.95780654 -374.7890625 334.18359375 C-372.12433161 342.5985334 -365.0950834 347.77631868 -357.6015625 351.93359375 C-353.41755143 353.98816777 -349.37214128 355.00436882 -344.7734375 355.6796875 C-337.45052673 356.98652675 -330.64394278 359.59541921 -323.7265625 362.24609375 C-323.03680328 362.50725983 -322.34704407 362.7684259 -321.63638306 363.0375061 C-304.76944703 369.43370894 -288.09201435 376.53613074 -272.02734375 384.75390625 C-262.27680367 389.72750027 -254.40702555 393.63494679 -243.33349609 390.23779297 C-232.08648687 386.41616639 -223.32238836 382.01483254 -216.6015625 371.93359375 C-215.6115625 371.93359375 -214.6215625 371.93359375 -213.6015625 371.93359375 C-214.06051901 376.98211541 -216.62011915 380.05347472 -219.6015625 383.93359375 C-209.16738496 384.67879619 -198.78944232 385.10254104 -188.32421875 385.13671875 C-187.62986662 385.13954613 -186.93551449 385.1423735 -186.22012138 385.14528656 C-182.53159104 385.16012538 -178.84309813 385.16944596 -175.15454102 385.17382812 C-172.19119658 385.17816837 -169.2281506 385.19190793 -166.26489258 385.21484375 C-150.02090318 385.33781162 -133.92666258 385.05459772 -117.7421875 383.5625 C-117.06889467 383.50108574 -116.39560184 383.43967148 -115.7019062 383.37639618 C-98.98519215 381.81431367 -82.7206385 378.60151353 -66.6015625 373.93359375 C-65.81869873 373.70889404 -65.03583496 373.48419434 -64.22924805 373.25268555 C-42.78282419 366.64466744 -28.84383555 348.97666692 -18.6015625 329.93359375 C-18.20469238 329.19592773 -17.80782227 328.45826172 -17.39892578 327.69824219 C-9.18376176 312.11517422 -3.82080946 295.68908245 1.3984375 278.93359375 C1.90749243 277.35935571 2.41659681 275.78513366 2.92578125 274.2109375 C9.85692487 251.9729662 13.12939964 228.41128286 13.08496094 205.17163086 C13.12293257 193.66403537 14.59736087 182.85447795 19.5234375 172.37109375 C22.62997274 165.68663359 23.55754526 160.31548591 23.6015625 152.96875 C23.60848618 152.1915712 23.61540985 151.4143924 23.62254333 150.61366272 C23.63992774 148.07442218 23.64614931 145.53539128 23.6484375 142.99609375 C23.64977692 142.12523132 23.65111633 141.2543689 23.65249634 140.3571167 C23.64746116 125.1991439 22.69205389 110.40546343 20.82177734 95.35449219 C20.40155638 91.95879657 20.01473127 88.56078652 19.63671875 85.16015625 C16.94838302 42.22949731 16.94838302 42.22949731 -1.7890625 6.05859375 C-10.9123262 2.40928827 -17.72207652 5.69499739 -23.36328125 13.3125 Z M-160.6015625 12.93359375 C-167.31517929 25.28862809 -173.56893453 37.85744478 -179.7265625 50.49609375 C-180.11544647 51.29101227 -180.50433044 52.08593079 -180.90499878 52.90493774 C-182.01916031 55.18453087 -183.12769445 57.46676738 -184.234375 59.75 C-184.74462471 60.79259979 -184.74462471 60.79259979 -185.2651825 61.85626221 C-187.01364519 65.24020794 -187.01364519 65.24020794 -187.6015625 68.93359375 C-186.9624292 68.98370605 -186.3232959 69.03381836 -185.66479492 69.08544922 C-182.70573032 69.32076569 -179.74742727 69.56464244 -176.7890625 69.80859375 C-175.78423828 69.88722656 -174.77941406 69.96585938 -173.74414062 70.046875 C-166.93496062 70.61613121 -160.2999798 71.58580703 -153.6015625 72.93359375 C-153.9315625 73.92359375 -154.2615625 74.91359375 -154.6015625 75.93359375 C-160.07146352 76.11004217 -165.29097992 75.90121499 -170.72631836 75.21679688 C-188.95184389 72.9230343 -205.71941645 73.57842592 -223.6015625 77.93359375 C-224.32859375 78.11019531 -225.055625 78.28679687 -225.8046875 78.46875 C-240.98064089 82.3197908 -254.91028532 89.49423226 -266.6015625 99.93359375 C-267.44074219 100.63097656 -268.27992188 101.32835937 -269.14453125 102.046875 C-276.09025241 107.96282207 -281.13024046 114.67802985 -286.13671875 122.2578125 C-286.86181641 123.08732422 -286.86181641 123.08732422 -287.6015625 123.93359375 C-288.5915625 123.93359375 -289.5815625 123.93359375 -290.6015625 123.93359375 C-290.0133957 120.90873594 -289.36085722 117.91972761 -288.6015625 114.93359375 C-312.69107201 114.15231236 -335.25120203 122.79944707 -357.6015625 130.93359375 C-350.95720209 152.87914952 -329.30996347 172.1448814 -312.6015625 186.93359375 C-311.77156738 187.66835938 -311.77156738 187.66835938 -310.92480469 188.41796875 C-308.16010021 191.08866799 -308.16010021 191.08866799 -304.6015625 191.93359375 C-304.63507813 192.94550781 -304.66859375 193.95742187 -304.703125 195 C-304.32874163 209.50015607 -297.22008641 225.36654455 -290.5390625 238.05859375 C-290.22291992 238.661875 -289.90677734 239.26515625 -289.58105469 239.88671875 C-287.28739328 244.083531 -285.08533169 247.67314309 -281.6015625 250.93359375 C-278.65390873 251.25900462 -276.65211545 251.25512953 -273.7890625 250.87109375 C-272.42852134 250.73302898 -271.06783547 250.59638499 -269.70703125 250.4609375 C-268.93552734 250.37674561 -268.16402344 250.29255371 -267.36914062 250.20581055 C-256.21170885 249.10837438 -245.04920991 248.7469936 -233.84472656 248.74829102 C-231.7061866 248.74607261 -229.5681393 248.72771285 -227.4296875 248.70898438 C-219.94048892 248.67952483 -212.86850303 249.00136265 -205.6015625 250.93359375 C-205.2715625 252.25359375 -204.9415625 253.57359375 -204.6015625 254.93359375 C-205.42011719 254.78921875 -206.23867187 254.64484375 -207.08203125 254.49609375 C-230.20834363 250.98693782 -253.54390036 252.78746542 -276.6015625 255.93359375 C-274.0821676 261.21041483 -270.67778167 264.94758248 -265.6015625 267.93359375 C-261.69705183 268.28094725 -258.32783464 267.02726759 -254.6015625 265.93359375 C-251.36124625 265.19896149 -248.10600783 264.5398582 -244.8515625 263.87109375 C-243.6452417 263.61054199 -243.6452417 263.61054199 -242.41455078 263.34472656 C-235.3671307 261.82529521 -228.58742199 260.79293172 -221.3515625 260.80859375 C-220.15015625 260.80601562 -218.94875 260.8034375 -217.7109375 260.80078125 C-214.6015625 260.93359375 -214.6015625 260.93359375 -211.6015625 261.93359375 C-210.9140625 263.99609375 -210.9140625 263.99609375 -210.6015625 265.93359375 C-211.65472656 265.91039062 -212.70789063 265.8871875 -213.79296875 265.86328125 C-229.00397739 265.62877376 -243.01438334 267.67124069 -257.6015625 271.93359375 C-252.52573873 277.85538815 -243.19712913 280.03483754 -235.83203125 281.76953125 C-228.97202107 282.27412044 -224.49801472 280.05844958 -218.9765625 276.43359375 C-211.26863601 271.43427597 -211.26863601 271.43427597 -206.6015625 270.93359375 C-205.9415625 272.25359375 -205.2815625 273.57359375 -204.6015625 274.93359375 C-205.4059375 275.16046875 -206.2103125 275.38734375 -207.0390625 275.62109375 C-211.51441989 277.26990963 -215.48877568 279.53903787 -219.6015625 281.93359375 C-219.6015625 282.26359375 -219.6015625 282.59359375 -219.6015625 282.93359375 C-193.44525124 284.36900108 -168.84916096 274.97033241 -145.6015625 263.93359375 C-145.24800911 260.81574262 -145.24800911 260.81574262 -147.6015625 258.93359375 C-150.22849594 258.67702311 -152.78146233 258.51329847 -155.4140625 258.43359375 C-160.15228866 258.28780218 -164.265035 258.04647945 -168.6015625 255.93359375 C-168.6015625 254.94359375 -168.6015625 253.95359375 -168.6015625 252.93359375 C-167.42980469 253.06121094 -166.25804687 253.18882812 -165.05078125 253.3203125 C-155.55662712 254.25087951 -155.55662712 254.25087951 -147.09765625 250.66015625 C-144.28213376 248.00219676 -141.9188345 245.03304962 -139.6015625 241.93359375 C-135.82428977 237.04495739 -135.82428977 237.04495739 -133.6015625 235.93359375 C-131.8611208 235.84909747 -130.11746528 235.82636351 -128.375 235.8359375 C-127.34375 235.83916016 -126.3125 235.84238281 -125.25 235.84570312 C-124.16976562 235.85408203 -123.08953125 235.86246094 -121.9765625 235.87109375 C-120.34460938 235.87786133 -120.34460938 235.87786133 -118.6796875 235.88476562 C-115.98692461 235.89657599 -113.29427062 235.91304597 -110.6015625 235.93359375 C-109.78657688 234.33068845 -108.97466323 232.72622097 -108.1640625 231.12109375 C-107.48537109 229.78111328 -107.48537109 229.78111328 -106.79296875 228.4140625 C-105.518402 225.89359897 -105.518402 225.89359897 -104.6015625 222.93359375 C-103.6115625 222.93359375 -102.6215625 222.93359375 -101.6015625 222.93359375 C-100.77537982 229.21258211 -103.70376671 233.61218694 -106.6015625 238.93359375 C-107.27363635 240.26420976 -107.94229968 241.59658412 -108.6015625 242.93359375 C-103.98723542 242.43112619 -101.55539473 240.63750845 -98.0390625 237.68359375 C-97.10964844 236.9153125 -96.18023437 236.14703125 -95.22265625 235.35546875 C-90.56896595 231.05548665 -88.15496343 228.21195942 -87.7734375 221.7578125 C-87.65742187 220.02241211 -87.65742187 220.02241211 -87.5390625 218.25195312 C-87.4771875 217.05376953 -87.4153125 215.85558594 -87.3515625 214.62109375 C-87.27421875 213.40357422 -87.196875 212.18605469 -87.1171875 210.93164062 C-86.9290306 207.93288999 -86.75776543 204.93415053 -86.6015625 201.93359375 C-87.3646875 202.42859375 -88.1278125 202.92359375 -88.9140625 203.43359375 C-91.6015625 204.93359375 -91.6015625 204.93359375 -94.6015625 204.93359375 C-94.6015625 203.61359375 -94.6015625 202.29359375 -94.6015625 200.93359375 C-92.19494555 198.98876308 -89.63438616 197.5031829 -86.984375 195.91015625 C-83.98895025 193.42542687 -83.56002257 191.67249223 -82.6015625 187.93359375 C-81.81288302 185.49512557 -81.02104558 183.05767722 -80.2265625 180.62109375 C-79.90437744 179.63206055 -79.90437744 179.63206055 -79.57568359 178.62304688 C-78.34544674 174.92234914 -76.95749641 171.4255125 -75.2265625 167.93359375 C-73.28995772 163.85123088 -73.4931187 161.27499863 -74.6015625 156.93359375 C-77.50002623 159.64640323 -79.56436882 162.25313845 -81.51171875 165.70703125 C-82.02669922 166.61453125 -82.54167969 167.52203125 -83.07226562 168.45703125 C-83.59755859 169.39804688 -84.12285156 170.3390625 -84.6640625 171.30859375 C-85.19322266 172.241875 -85.72238281 173.17515625 -86.26757812 174.13671875 C-89.90720311 180.5848373 -93.40323935 186.83131895 -95.6015625 193.93359375 C-96.5915625 193.60359375 -97.5815625 193.27359375 -98.6015625 192.93359375 C-98.13595704 186.78270058 -96.10257872 182.37095722 -93.1640625 176.99609375 C-92.72537842 176.17141602 -92.28669434 175.34673828 -91.8347168 174.49707031 C-89.59735771 170.35396001 -87.2578042 166.32352444 -84.6796875 162.3828125 C-83.9844397 161.31824829 -83.9844397 161.31824829 -83.27514648 160.23217773 C-82.38996971 158.89988745 -81.48660785 157.5794424 -80.56274414 156.27368164 C-78.489804 153.18103207 -77.60085067 151.24715313 -77.609375 147.4921875 C-78.76628308 143.3428046 -80.28601288 139.61440766 -82.1640625 135.74609375 C-82.52266357 135.00069336 -82.88126465 134.25529297 -83.25073242 133.48730469 C-92.00037888 115.70866597 -105.15507186 99.21693563 -122.3515625 88.99609375 C-123.4240625 88.31546875 -124.4965625 87.63484375 -125.6015625 86.93359375 C-125.6015625 85.94359375 -125.6015625 84.95359375 -125.6015625 83.93359375 C-123.2915625 84.26359375 -120.9815625 84.59359375 -118.6015625 84.93359375 C-116.59013116 65.22156661 -132.27289964 43.25269078 -144.08154297 28.75732422 C-151.21504395 19.4241343 -151.21504395 19.4241343 -160.6015625 12.93359375 Z " transform="translate(385.6015625,58.06640625)" style="fill: #8D1D1B;"/><path d="M0 0 C0.05534912 0.65484375 0.11069824 1.3096875 0.16772461 1.984375 C0.42268056 4.98972466 0.68007315 7.99486102 0.9375 11 C1.02451172 12.02996094 1.11152344 13.05992187 1.20117188 14.12109375 C1.68665019 19.76702674 2.25059866 25.38286561 3 31 C3.73476563 30.77441406 4.46953125 30.54882812 5.2265625 30.31640625 C8 30 8 30 10.2109375 31.15234375 C19.93874663 39.17690832 29.2814976 48.88209836 31 62 C31.85596634 75.71452146 31.41807089 85.72535387 22.23046875 96.51953125 C21.12638672 97.74736328 21.12638672 97.74736328 20 99 C19.29488281 99.78761719 18.58976563 100.57523437 17.86328125 101.38671875 C9.32494785 110.41558477 -0.49726915 115.59995826 -12 120 C-12.81082031 120.35191406 -13.62164062 120.70382812 -14.45703125 121.06640625 C-27.24225601 125.7602138 -47.38341969 126.34918053 -60 121 C-66.48267196 116.6594548 -72.03809503 111.28478901 -77.5 105.75 C-78.61725464 104.62259399 -78.61725464 104.62259399 -79.75708008 103.47241211 C-85.2153016 97.91146445 -90.25228494 92.18158874 -95 86 C-96.19133618 84.48850081 -97.384182 82.97819089 -98.578125 81.46875 C-99.8652977 79.83389553 -101.15175351 78.19847637 -102.4375 76.5625 C-103.05391357 75.78011963 -103.67032715 74.99773926 -104.30541992 74.19165039 C-104.88396729 73.44906982 -105.46251465 72.70648926 -106.05859375 71.94140625 C-106.57736084 71.27826416 -107.09612793 70.61512207 -107.63061523 69.93188477 C-108.98332813 68.02352015 -110.01440343 66.11772066 -111 64 C-109.02 64 -107.04 64 -105 64 C-105.495 62.02 -105.495 62.02 -106 60 C-108.04111542 59.51849058 -110.08291932 59.03989917 -112.125 58.5625 C-113.26195312 58.29566406 -114.39890625 58.02882813 -115.5703125 57.75390625 C-136.25876648 53.20621648 -162.82471201 53.49825874 -181.546875 64.49609375 C-192.00861473 71.35962906 -197.93692504 79.66561629 -203 91 C-203.63502441 90.823479 -204.27004883 90.64695801 -204.92431641 90.46508789 C-207.82367749 89.66106117 -210.72431662 88.86174252 -213.625 88.0625 C-214.62402344 87.78470703 -215.62304688 87.50691406 -216.65234375 87.22070312 C-221.41580891 85.91153886 -226.09357067 84.66144696 -231 84 C-230.54077122 63.79393348 -203.67277758 41.12765839 -191 27 C-187.60842209 27.58629027 -186.00351748 28.67584816 -183.5625 31.0625 C-168.46527043 44.65279723 -149.95245805 50.4092953 -130 50.3125 C-128.80318604 50.30758545 -127.60637207 50.3026709 -126.37329102 50.29760742 C-116.93752928 50.17349454 -108.14633871 49.26076659 -99 47 C-98.30745117 46.83902832 -97.61490234 46.67805664 -96.90136719 46.51220703 C-85.50928246 43.83035262 -74.82705605 39.73078684 -64.05859375 35.18359375 C-63.21304932 34.82668457 -62.36750488 34.46977539 -61.49633789 34.10205078 C-59.81760148 33.36094407 -58.1572601 32.57684827 -56.51733398 31.75341797 C-50.61722192 28.83589373 -50.61722192 28.83589373 -47.35546875 29.703125 C-46.28232422 30.46882813 -46.28232422 30.46882813 -45.1875 31.25 C-39.59609943 34.56989409 -34.39891902 35.08609658 -28 34 C-23.13411675 31.71058443 -21.75337151 29.31471866 -19.734375 24.53125 C-18.95583909 21.84778581 -18.94851687 19.71758926 -19 16.9375 C-18.859375 14.42578125 -18.859375 14.42578125 -18 12 C-15.19747288 9.50265605 -12.32379875 7.66771602 -9.078125 5.7890625 C-6.69066369 4.40142636 -2.652131 0 0 0 Z " transform="translate(297,295)" style="fill: #F8EAA4;"/><path d="M0 0 C1.10698242 -0.02320313 1.10698242 -0.02320313 2.23632812 -0.046875 C7.45087365 -0.00979379 10.4562608 1.05528845 14.5625 4.5 C19.76560531 10.36120558 23.20636349 17.07162518 25.5625 24.5 C25.8615625 25.42941406 26.160625 26.35882813 26.46875 27.31640625 C32.87724279 50.54719263 27.02289757 75.65116822 15.546875 96.33007812 C1.73539343 120.21672629 -17.93390384 135.51383222 -43.4375 145.5 C-44.34113281 145.86867188 -45.24476563 146.23734375 -46.17578125 146.6171875 C-63.79967839 153.1974559 -83.84344911 154.69970499 -102.5 154.6875 C-103.77536621 154.68669434 -105.05073242 154.68588867 -106.36474609 154.68505859 C-131.40283075 154.52311283 -131.40283075 154.52311283 -137.4375 150.5 C-136.72464844 149.91992188 -136.01179688 149.33984375 -135.27734375 148.7421875 C-125.78219146 142.04692434 -125.78219146 142.04692434 -118.4375 133.5 C-117.179375 133.46261719 -115.92125 133.42523438 -114.625 133.38671875 C-87.2002124 132.41130382 -61.02562298 126.08149847 -41.4375 105.5 C-24.75928485 85.68849981 -21.05049961 60.69099263 -18.6953125 35.80859375 C-18.60012833 34.81059502 -18.60012833 34.81059502 -18.50302124 33.79243469 C-18.18979412 30.49324345 -17.89102543 27.19444963 -17.61474609 23.8918457 C-16.14877058 7.67704039 -16.14877058 7.67704039 -11.27734375 1.96875 C-7.42035801 -0.02605968 -4.28173812 -0.08928038 0 0 Z " transform="translate(475.4375,279.5)" style="fill: #FC9F41;"/><path d="M0 0 C1.69330572 1.63959486 3.35641912 3.31056298 5 5 C6.11568359 6.13695312 6.11568359 6.13695312 7.25390625 7.296875 C27.09602885 28.38122862 53.93154349 66.30844012 54.1875 96.5625 C54.20167969 97.32691406 54.21585937 98.09132813 54.23046875 98.87890625 C54 101 54 101 52 104 C47.21392778 104.55837509 44.97239368 104.51371742 40.6875 102.25 C36.07546943 98.3887651 34.61540682 95.27300961 33.1875 89.4375 C27.49223613 68.91345649 11.49998661 51.97875209 -2 36 C-2.9689481 34.84652055 -3.93770899 33.6928838 -4.90625 32.5390625 C-8.65906934 28.07934459 -12.44215151 23.64609638 -16.2421875 19.2265625 C-16.78536621 18.59451904 -17.32854492 17.96247559 -17.88818359 17.3112793 C-18.93404133 16.09544196 -19.9811675 14.88069414 -21.02978516 13.66723633 C-23.45755891 10.84774 -25.81804464 8.01493157 -28 5 C-4.38970588 -2.19485294 -4.38970588 -2.19485294 0 0 Z " transform="translate(179,134)" style="fill: #DC8B4A;"/><path d="M0 0 C3.39157791 0.58629027 4.99648252 1.67584816 7.4375 4.0625 C23.32887796 18.36767757 42.20584533 23.28665423 63 23.390625 C64.48113281 23.42542969 64.48113281 23.42542969 65.9921875 23.4609375 C67.32805908 23.47326416 67.32805908 23.47326416 68.69091797 23.48583984 C71 24 71 24 72.81298828 25.90869141 C74 28 74 28 74 30 C72.43765625 29.76023437 72.43765625 29.76023437 70.84375 29.515625 C48.57907191 26.75699617 23.04310058 27.22614659 4.3828125 41.03125 C-3.42348117 47.48104018 -7.89602197 54.81268555 -12 64 C-12.63502441 63.823479 -13.27004883 63.64695801 -13.92431641 63.46508789 C-16.82367749 62.66106117 -19.72431662 61.86174252 -22.625 61.0625 C-23.62402344 60.78470703 -24.62304688 60.50691406 -25.65234375 60.22070312 C-30.41580891 58.91153886 -35.09357067 57.66144696 -40 57 C-39.54077122 36.79393348 -12.67277758 14.12765839 0 0 Z " transform="translate(106,322)" style="fill: #FC9E41;"/><path d="M0 0 C2.08667817 0.04235554 4.17187785 0.15916252 6.25390625 0.3046875 C6.89850296 0.34776031 7.54309967 0.39083313 8.20722961 0.43521118 C10.32598814 0.57726199 12.44421111 0.7261232 14.5625 0.875 C17.48282435 1.07414471 20.40342229 1.26884683 23.32421875 1.4609375 C24.42367828 1.53347748 24.42367828 1.53347748 25.54534912 1.60748291 C33.32714408 2.10763486 41.11670468 2.3906139 48.91235352 2.56982422 C49.82557373 2.59834473 50.73879395 2.62686523 51.6796875 2.65625 C52.86667236 2.68428711 52.86667236 2.68428711 54.07763672 2.71289062 C56 3 56 3 58 5 C57.60076909 8.10876531 56.24293562 10.55810132 54.8125 13.3125 C51.54204653 20.28122788 49.86766899 27.65640825 48.0559082 35.11450195 C47.81702881 36.08734131 47.57814941 37.06018066 47.33203125 38.0625 C47.01842651 39.37927734 47.01842651 39.37927734 46.69848633 40.72265625 C46 43 46 43 44 46 C39.01898545 45.45758891 35.09678695 43.81457917 30.75 41.4375 C30.09322266 41.08107422 29.43644531 40.72464844 28.75976562 40.35742188 C15.45976585 32.94537499 5.67383459 23.27055368 0 9 C-0.70481573 6.18511484 -0.94486417 3.92219906 -1 1 C-0.67 0.67 -0.34 0.34 0 0 Z " transform="translate(42,192)" style="fill: #8E221F;"/><path d="M0 0 C4.90507625 3.87158892 8.68049625 7.79519463 12.125 13 C12.58455078 13.68296143 13.04410156 14.36592285 13.51757812 15.06958008 C19.75006714 24.46733083 25.44126571 34.19282838 31 44 C31.54881836 44.96357422 32.09763672 45.92714844 32.66308594 46.91992188 C34.25846967 49.74624713 35.8222033 52.58759305 37.375 55.4375 C37.85775391 56.29496826 38.34050781 57.15243652 38.83789062 58.03588867 C41.60486415 63.23014951 42.56126966 66.25731011 41 72 C38.03 72.495 38.03 72.495 35 73 C28.77465992 65.37915443 22.55601172 57.75651817 16.5 50 C12.046741 44.2986887 7.50660956 38.67297544 2.93481445 33.06640625 C-2.75772141 26.08224363 -8.38254048 19.04459789 -14 12 C-12.47547071 7.7158797 -9.61196542 6.13529708 -5.875 3.75 C-4.77929688 3.04359375 -3.68359375 2.3371875 -2.5546875 1.609375 C-1.71164063 1.07828125 -0.86859375 0.5471875 0 0 Z " transform="translate(134,147)" style="fill: #DC8B4A;"/><path d="M0 0 C7.90847223 -0.1530672 15.78682518 0.10496621 23.6875 0.4375 C25.14748413 0.49635376 25.14748413 0.49635376 26.63696289 0.55639648 C32.46457556 0.81424669 38.20976908 1.29038365 44 2 C43.73062622 2.78201782 43.73062622 2.78201782 43.45581055 3.57983398 C41.38168954 9.68975676 39.56259363 15.85290851 37.8125 22.0625 C37.53986328 23.02349609 37.26722656 23.98449219 36.98632812 24.97460938 C36.32238201 27.31589303 35.66030709 29.65768796 35 32 C21.6265466 28.05438096 9.94130192 19.67076047 2.5625 7.66015625 C0 2.73980035 0 2.73980035 0 0 Z " transform="translate(48,199)" style="fill: #F7E8A3;"/><path d="M0 0 C1.89510699 -0.08160748 3.79124504 -0.13946459 5.6875 -0.1875 C6.74324219 -0.22230469 7.79898438 -0.25710937 8.88671875 -0.29296875 C13.71509657 0.16139554 16.04645553 1.86897097 19.140625 5.5390625 C40.33358432 36.54357706 40.33358432 36.54357706 38 54 C36 56 36 56 33.25 56.125 C28.38282434 54.44020843 26.51254229 51.38137541 24 47 C22.76177789 44.20442638 21.65066077 41.37251279 20.53125 38.52734375 C15.69628192 27.38964942 9.0860633 16.8964387 2.69238281 6.59448242 C0 2.21049579 0 2.21049579 0 0 Z " transform="translate(204,133)" style="fill: #DC8B4A;"/><path d="M0 0 C1.68698082 0.61344757 3.34827188 1.29713697 5 2 C11.47744936 4.31085109 18.06822581 6.20720523 24.6875 8.0625 C30.16536734 9.60157525 35.62136313 11.13576268 41 13 C40 16 40 16 37.48828125 17.3515625 C36.44027344 17.77179688 35.39226563 18.19203125 34.3125 18.625 C33.27738281 19.05039062 32.24226563 19.47578125 31.17578125 19.9140625 C20.25182623 23.64943703 8.87067727 22.38006252 -2 19 C-5.53745695 17.25786894 -8.78963777 15.28571873 -12 13 C-10.68784457 9.03619713 -9.20251073 6.91090965 -6 4.25 C-4.948125 3.36054688 -4.948125 3.36054688 -3.875 2.453125 C-2 1 -2 1 0 0 Z " transform="translate(20,412)" style="fill: #FA9D40;"/><path d="M0 0 C3 2 3 2 4 5 C4.14648082 7.26763574 4.2209626 9.54032366 4.25 11.8125 C4.27578125 13.01519531 4.3015625 14.21789062 4.328125 15.45703125 C3.96748706 19.35106229 3.0633185 21.69772623 1 25 C-1.8893308 26.92622053 -3.35484337 27.54704287 -6.77734375 27.4453125 C-14.96259815 25.80538455 -22.08053552 20.65039792 -28 15 C-26.06893041 12.27669673 -24.04594678 9.63771165 -22 7 C-21.52820313 6.31035156 -21.05640625 5.62070312 -20.5703125 4.91015625 C-15.28540362 -1.78497443 -7.86512622 -1.04314467 0 0 Z " transform="translate(269,298)" style="fill: #F14F73;"/><path d="M0 0 C1.13050781 -0.00547852 2.26101562 -0.01095703 3.42578125 -0.01660156 C13.83368481 0.07365837 13.83368481 0.07365837 18.4375 2.3125 C19.375 4.375 19.375 4.375 19.4375 6.3125 C18.4375 7.3125 18.4375 7.3125 15.74804688 7.37841797 C13.97010742 7.34192139 13.97010742 7.34192139 12.15625 7.3046875 C10.84664307 7.28591553 9.53703613 7.26714355 8.18774414 7.24780273 C7.49294952 7.2373996 6.79815491 7.22699646 6.08230591 7.21627808 C-4.87139422 7.06930607 -15.40437825 7.17909764 -26.15234375 9.55859375 C-29.95719359 10.39975757 -33.69208507 10.87490095 -37.5625 11.3125 C-37.8925 9.9925 -38.2225 8.6725 -38.5625 7.3125 C-25.95672939 1.46935457 -13.73375868 0.04948416 0 0 Z " transform="translate(191.5625,281.6875)" style="fill: #91251F;"/><path d="M0 0 C1.32 0.33 2.64 0.66 4 1 C3.50889858 5.55087318 2.57076756 8.03452665 -0.3125 11.5625 C-4.47463534 17.02907268 -7.91314014 22.78239562 -11.3125 28.75 C-11.8278833 29.64920166 -12.3432666 30.54840332 -12.87426758 31.47485352 C-16.44256182 37.78825951 -19.45273031 44.02035573 -21.6875 50.9375 C-21.93886719 51.70964844 -22.19023437 52.48179687 -22.44921875 53.27734375 C-22.63097656 53.84582031 -22.81273437 54.41429687 -23 55 C-24.32 54.67 -25.64 54.34 -27 54 C-29.06038457 35.86861579 -10.12825632 13.74797679 0 0 Z " transform="translate(282,207)" style="fill: #8E201D;"/><path d="M0 0 C0.54269531 0.22816406 1.08539063 0.45632813 1.64453125 0.69140625 C1.64453125 6.74667083 -0.51689853 10.5070996 -4.61328125 14.93359375 C-9.94155229 18.34915211 -16.30203216 17.32985464 -22.35546875 16.69140625 C-22.68546875 15.37140625 -23.01546875 14.05140625 -23.35546875 12.69140625 C-18.34218946 9.23528189 -13.23894893 5.92887328 -8.04296875 2.75390625 C-7.05683594 2.14675781 -6.07070312 1.53960937 -5.0546875 0.9140625 C-2.35546875 -0.30859375 -2.35546875 -0.30859375 0 0 Z " transform="translate(255.35546875,273.30859375)" style="fill: #8D1E1C;"/></svg>