<?xml version="1.0" encoding="UTF-8"?>
<!-- Generator: visioncortex VTracer -->
<svg id="svg" version="1.1" xmlns="http://www.w3.org/2000/svg" style="display: block;" viewBox="0 0 512 512"><path d="M0 0 C9.06524564 4.74912715 16.64913153 12.95885913 24 20 C24.680625 20.639375 25.36125 21.27875 26.0625 21.9375 C41.53665103 36.83853433 54.99233396 56.36230144 59.7890625 77.47265625 C61.15843033 81.46149223 63.18457342 83.97663226 66 87 C87.17991907 110.96803774 101.33404119 141.54771378 100.14501953 173.86816406 C99.52817546 182.93597965 97.32919394 191.5697722 94 200 C95.66675781 200.14695313 95.66675781 200.14695313 97.3671875 200.296875 C108.99080101 201.42131905 119.79479388 202.8147276 128 212 C130.48743297 215.93174888 131.13111181 218.42651156 131 223 C131.83136475 223.01981934 132.66272949 223.03963867 133.51928711 223.06005859 C136.64501012 223.13880532 139.77038913 223.22551574 142.89575195 223.31738281 C144.89713729 223.37386098 146.89876858 223.42139768 148.90039062 223.46875 C166.75259515 224.00836323 166.75259515 224.00836323 171.09375 227.85546875 C171.78984375 229.00982422 171.78984375 229.00982422 172.5 230.1875 C173.35078125 231.55455078 173.35078125 231.55455078 174.21875 232.94921875 C174.8065625 233.95597656 175.394375 234.96273437 176 236 C176.6290625 237.01707031 177.258125 238.03414062 177.90625 239.08203125 C190.58072325 259.65118476 202.33389067 280.84806337 214 302 C214.515625 302.93118652 215.03125 303.86237305 215.5625 304.82177734 C216.99244989 307.41588892 218.40570706 310.0182727 219.8125 312.625 C220.22733643 313.37644287 220.64217285 314.12788574 221.06958008 314.90209961 C223.42446377 319.3262887 224.70917627 322.9719809 225 328 C223.10582078 329.89417922 219.79789179 329.24369915 217.2734375 329.31640625 C216.5815332 329.33723267 215.88962891 329.35805908 215.17675781 329.3795166 C212.90962058 329.44583302 210.6423643 329.50450651 208.375 329.5625 C206.8263336 329.60534985 205.27766823 329.64823733 203.72900391 329.69116211 C191.4848578 330.01719535 179.2482335 330.11225469 167 330 C166.94593994 330.95342285 166.89187988 331.9068457 166.83618164 332.88916016 C166.4108023 340.15283201 165.91078797 347.40247905 165.24609375 354.6484375 C165.147556 355.72427094 165.147556 355.72427094 165.04702759 356.82183838 C164.77708708 359.74760554 164.50402495 362.67305776 164.22680664 365.59814453 C161.64770953 381.4090769 161.64770953 381.4090769 166.5 395.6875 C168.69044364 398.87481901 169.95873001 400.82902432 170.875 404.625 C169.92683556 408.28220568 168.81014596 409.57264949 166.375 412.375 C163.67525658 415.45846407 163.67525658 415.45846407 162.91015625 419.328125 C163.44274617 421.64784999 164.13694298 423.78304784 165 426 C166.72539921 431.36790866 168.31297653 436.40355393 167 442 C164.93423354 445.88315631 162.51994627 448.38630489 159 451 C147.84381581 454.39899711 134.63511122 454.07935443 123.0625 455 C121.98608246 455.08682037 120.90966492 455.17364075 119.80062866 455.26309204 C105.48061793 456.4137564 91.15944404 457.44017305 76.8125 458.1875 C76.11738312 458.22415771 75.42226624 458.26081543 74.70608521 458.29858398 C70.35081726 458.52386207 65.99482303 458.71750981 61.63726807 458.89285278 C59.77740471 458.96841552 57.91767219 459.04723297 56.05804443 459.12838745 C31.37721521 460.18849885 6.69952495 460.1997202 -18 460.1875 C-19.07139221 460.18738041 -20.14278442 460.18726082 -21.24664307 460.1871376 C-53.8785119 460.18253344 -86.44489043 459.94662661 -119.03637695 458.16143799 C-122.11187539 457.99390579 -125.18770888 457.83405273 -128.26367188 457.67529297 C-150.21069531 456.53003604 -172.11725041 455.03966579 -194 453 C-194.85001587 452.92227356 -195.70003174 452.84454712 -196.57580566 452.76446533 C-205.31519841 451.95500857 -213.97587433 450.94428125 -222.625 449.4375 C-223.35444824 449.31060791 -224.08389648 449.18371582 -224.83544922 449.05297852 C-229.86930597 448.13069403 -229.86930597 448.13069403 -231 447 C-231.32102765 441.00748387 -230.5019035 435.79305637 -229 430 C-229.67546875 429.76925781 -230.3509375 429.53851563 -231.046875 429.30078125 C-234.77454061 427.6588333 -237.92885156 425.52677364 -241.25 423.1875 C-242.20519531 422.54844727 -242.20519531 422.54844727 -243.1796875 421.89648438 C-245.78558655 420.06403834 -247.73683679 418.5168663 -249.1953125 415.65234375 C-248.8935223 411.55403289 -246.84416384 408.75658299 -244.625 405.375 C-236.71349669 392.95633723 -238.96308253 381.47652422 -240.9375 367.375 C-241.30359084 364.69569077 -241.66553165 362.01582739 -242.02734375 359.3359375 C-242.19733887 358.08264648 -242.36733398 356.82935547 -242.54248047 355.53808594 C-243.12498545 351.03346364 -243.59829393 346.52405535 -244 342 C-244.99257812 342.25394531 -245.98515625 342.50789063 -247.0078125 342.76953125 C-273.98851413 349.62835183 -273.98851413 349.62835183 -282 349 C-283 348 -283 348 -283.22265625 344.39453125 C-283.1357 337.38972211 -281.72286873 330.55054052 -280.4375 323.6875 C-280.3050589 322.9694519 -280.1726178 322.25140381 -280.03616333 321.51159668 C-278.12352473 311.18583161 -275.95452842 300.94713843 -273.4375 290.75 C-273.16929443 289.65260498 -272.90108887 288.55520996 -272.62475586 287.42456055 C-267.16793886 266.09514752 -267.16793886 266.09514752 -261 260 C-258.30570253 258.79027803 -255.86575449 257.86524119 -253.0625 257.0234375 C-251.88192017 256.65029922 -251.88192017 256.65029922 -250.67749023 256.2696228 C-242.09353074 253.61306872 -233.38913369 251.40490439 -224.66210938 249.27490234 C-221.94466978 248.6114922 -219.23003344 247.93741464 -216.515625 247.26171875 C-214.78139805 246.83273438 -213.04702855 246.40432578 -211.3125 245.9765625 C-210.50433838 245.77664703 -209.69617676 245.57673157 -208.86352539 245.37075806 C-203.23484487 244 -203.23484487 244 -201 244 C-200.73445313 243.28199219 -200.46890625 242.56398438 -200.1953125 241.82421875 C-194.74641916 228.94987273 -184.40513844 218.10552109 -175 208 C-174.06414062 206.98292969 -174.06414062 206.98292969 -173.109375 205.9453125 C-168.61103181 201.23906269 -163.68351739 197.29801956 -158.47949219 193.41210938 C-154.45127733 190.51092812 -154.45127733 190.51092812 -151 187 C-150.08789952 177.88863005 -152.49384773 166.82694738 -158.125 159.625 C-158.92421875 158.70589844 -159.7234375 157.78679687 -160.546875 156.83984375 C-173.371006 141.99407427 -181.51861544 121.27002628 -187.6875 102.9375 C-188.026604 101.93275635 -188.36570801 100.9280127 -188.71508789 99.89282227 C-190.24103706 95.14843409 -191.45130813 91.04954189 -191 86 C-184.50847879 83.76736698 -178.07152079 83.33167674 -171.25 82.875 C-170.02877441 82.79080811 -168.80754883 82.70661621 -167.54931641 82.61987305 C-158.82232297 82.06751044 -150.11886958 81.81859414 -141.375 81.8125 C-140.2809082 81.81169434 -139.18681641 81.81088867 -138.05957031 81.81005859 C-133.16757158 81.84406229 -128.50557349 82.04617278 -123.66796875 82.78515625 C-118.47637204 83.35431908 -115.91598274 81.78966356 -111.9375 78.625 C-110.64795168 77.68877301 -109.35348758 76.75928694 -108.0546875 75.8359375 C-107.06033691 75.1238916 -107.06033691 75.1238916 -106.04589844 74.39746094 C-83.57824521 59.05082048 -56.73722193 52.92416098 -30 51 C-29.72849121 50.25016846 -29.45698242 49.50033691 -29.17724609 48.7277832 C-27.91561433 45.25389109 -26.6453501 41.78321296 -25.375 38.3125 C-24.94832031 37.13365234 -24.52164062 35.95480469 -24.08203125 34.74023438 C-10.83163459 -1.35226399 -10.83163459 -1.35226399 0 0 Z " transform="translate(285,26)" style="fill: #8B1D1C;"/><path d="M0 0 C9.73641245 9.64020285 16.97643579 21.4833276 23.9375 33.1875 C24.32583008 33.83493164 24.71416016 34.48236328 25.11425781 35.14941406 C27.9375 39.94570347 27.9375 39.94570347 27.9375 42.1875 C26.32367052 43.64409977 24.64386784 45.02798951 22.9375 46.375 C21.93976563 47.179375 20.94203125 47.98375 19.9140625 48.8125 C18.10260179 50.25786498 16.28616616 51.69706086 14.4609375 53.125 C10.11902612 56.60454526 10.11902612 56.60454526 7.9375 61.625 C7.9375 62.470625 7.9375 63.31625 7.9375 64.1875 C10.92182787 64.54057204 10.92182787 64.54057204 12.375 62.75390625 C12.890625 62.09261719 13.40625 61.43132812 13.9375 60.75 C18.30720168 55.51945773 23.40067568 51.15418011 28.9375 47.1875 C29.5975 47.1875 30.2575 47.1875 30.9375 47.1875 C31.58644237 49.24902389 32.2315264 51.31176258 32.875 53.375 C33.23464844 54.52355469 33.59429687 55.67210937 33.96484375 56.85546875 C34.7761115 59.63463095 35.39350643 62.34899657 35.9375 65.1875 C32.66679439 66.33369813 29.39591361 67.47939558 26.125 68.625 C25.19623047 68.95048828 24.26746094 69.27597656 23.31054688 69.61132812 C22.41787109 69.92392578 21.52519531 70.23652344 20.60546875 70.55859375 C19.78328857 70.84661865 18.9611084 71.13464355 18.11401367 71.43139648 C16.39282136 72.02932499 14.66608883 72.61130372 12.9375 73.1875 C12.9375 74.8375 12.9375 76.4875 12.9375 78.1875 C13.79472656 77.84976563 14.65195312 77.51203125 15.53515625 77.1640625 C31.56187906 70.91237581 31.56187906 70.91237581 37.9375 72.1875 C37.9375 77.7975 37.9375 83.4075 37.9375 89.1875 C30.3125 89.5625 30.3125 89.5625 27.94677734 89.66552734 C23.63886823 89.90722521 20.00238294 90.61027413 15.9375 92.1875 C16.2675 93.1775 16.5975 94.1675 16.9375 95.1875 C23.5375 95.1875 30.1375 95.1875 36.9375 95.1875 C34.84672161 107.92224109 30.21514118 119.49800691 22.9375 130.1875 C22.35643242 131.07522346 22.35643242 131.07522346 21.7636261 131.98088074 C18.19187974 136.84053197 18.19187974 136.84053197 14.85603333 137.76324463 C12.40373621 137.90049644 10.05190191 137.82074337 7.6015625 137.65234375 C6.72221039 137.62024307 5.84285828 137.5881424 4.93685913 137.55506897 C2.14275682 137.44535535 -0.64592848 137.28596891 -3.4375 137.125 C-5.33709786 137.0416275 -7.23684171 136.96151346 -9.13671875 136.88476562 C-13.78118415 136.69004112 -18.4214353 136.45075766 -23.0625 136.1875 C-19.62020714 130.94803462 -16.13426888 125.86758655 -12.1640625 121.01171875 C-10.71788681 118.97197951 -10.71788681 118.97197951 -11.0625 115.1875 C-12.0525 115.1875 -13.0425 115.1875 -14.0625 115.1875 C-15.53031116 116.59497906 -15.53031116 116.59497906 -16.83984375 118.51171875 C-17.35353516 119.21103516 -17.86722656 119.91035156 -18.39648438 120.63085938 C-18.92564453 121.37142578 -19.45480469 122.11199219 -20 122.875 C-21.55646612 125.01203753 -23.11455503 127.1477502 -24.67919922 129.27880859 C-25.83889164 130.87896309 -26.9577694 132.50858954 -28.06640625 134.14453125 C-31.68019123 137.84318007 -37.13583618 137.32672465 -42.08813477 137.54467773 C-43.85386086 137.62507294 -43.85386086 137.62507294 -45.65525818 137.70709229 C-47.56033897 137.78827301 -47.56033897 137.78827301 -49.50390625 137.87109375 C-50.85381972 137.93122149 -52.20371875 137.99167399 -53.55360413 138.0524292 C-57.16464996 138.21406898 -60.77587592 138.37128325 -64.38715363 138.52764511 C-68.12003537 138.69003976 -71.85273304 138.85655597 -75.58544922 139.02270508 C-81.57363739 139.28876777 -87.56192092 139.55256249 -93.55029297 139.81445312 C-101.1808497 140.14821151 -108.81117812 140.48693044 -116.44140625 140.828125 C-126.64830552 141.28426131 -136.855335 141.73735028 -147.0625 142.1875 C-144.82343608 137.49015051 -141.81231051 134.56240525 -137.0625 132.1875 C-137.0625 130.8675 -137.0625 129.5475 -137.0625 128.1875 C-142.35835436 128.50846087 -145.55125918 131.48757101 -149.0625 135.1875 C-149.83186945 136.44670134 -150.58265625 137.71748471 -151.3125 139 C-152.92209493 141.40380295 -153.66862695 142.08019484 -156.5 142.8515625 C-159.37331352 143.13091243 -162.17639335 143.19932831 -165.0625 143.1875 C-166.35414063 143.25904297 -166.35414063 143.25904297 -167.671875 143.33203125 C-173.59394836 143.59329919 -173.59394836 143.59329919 -175.8125 141.671875 C-176.43125 140.93710937 -176.43125 140.93710937 -177.0625 140.1875 C-175.55491332 135.74623112 -172.07741973 133.84603134 -168.3125 131.4375 C-167.64653809 131.00356934 -166.98057617 130.56963867 -166.29443359 130.12255859 C-139.9962365 113.16379206 -139.9962365 113.16379206 -132.0625 114.1875 C-132.0625 112.5375 -132.0625 110.8875 -132.0625 109.1875 C-149.7713444 110.8902735 -166.3011396 123.77509269 -180.0625 134.1875 C-183.64952661 132.71935858 -185.46623148 130.80315711 -187.8125 127.75 C-188.42609375 126.96753906 -189.0396875 126.18507812 -189.671875 125.37890625 C-191.0625 123.1875 -191.0625 123.1875 -191.0625 120.1875 C-182.18967491 115.81357214 -173.28853652 111.7322656 -164 108.3125 C-162.84213989 107.88408813 -162.84213989 107.88408813 -161.66088867 107.44702148 C-154.11301662 104.72600178 -147.08591121 102.9923256 -139.0625 102.5625 C-138.38316406 102.52382812 -137.70382813 102.48515625 -137.00390625 102.4453125 C-135.35714183 102.35253704 -133.70986045 102.26901002 -132.0625 102.1875 C-132.0625 101.1975 -132.0625 100.2075 -132.0625 99.1875 C-149.46599557 93.38633481 -171.83180485 105.99054315 -187.0625 113.1875 C-188.81626953 114.08082031 -188.81626953 114.08082031 -190.60546875 114.9921875 C-193.0625 116.1875 -193.0625 116.1875 -195.0625 116.1875 C-199.26458059 108.24252299 -200.85127889 101.25420742 -201.75 92.375 C-203.13491292 81.50576339 -205.64720665 74.92797235 -212.76318359 66.76074219 C-225.75863743 51.0255478 -238.08052108 25.43040826 -240.0625 5.1875 C-232.15049588 4.42258897 -224.33007635 4.03845524 -216.3828125 4.0546875 C-214.79821732 4.05325241 -214.79821732 4.05325241 -213.18161011 4.05178833 C-210.97165873 4.05111366 -208.76170528 4.05291763 -206.55175781 4.05712891 C-203.17508523 4.06251982 -199.7985437 4.05714309 -196.421875 4.05078125 C-194.26302054 4.05144153 -192.10416616 4.05272165 -189.9453125 4.0546875 C-188.94210968 4.05266327 -187.93890686 4.05063904 -186.90530396 4.04855347 C-183.01592058 4.06157062 -179.41754758 4.12416087 -175.57958984 4.80883789 C-172.83104832 5.48861359 -172.83104832 5.48861359 -169.90625 3.37890625 C-168.78064604 2.51680587 -167.66657385 1.63950677 -166.5625 0.75 C-165.31869229 -0.18836882 -164.07120069 -1.121872 -162.8203125 -2.05078125 C-161.87720215 -2.75388428 -161.87720215 -2.75388428 -160.91503906 -3.47119141 C-147.20082455 -13.40080323 -130.80672328 -19.60750382 -114.5 -23.75 C-113.71608887 -23.94940186 -112.93217773 -24.14880371 -112.12451172 -24.35424805 C-75.92386572 -32.92165794 -29.02628285 -24.22263745 0 0 Z " transform="translate(341.0625,110.8125)" style="fill: #FEC162;"/><path d="M0 0 C3 1 3 1 4.4284668 3.36523438 C4.93031494 4.43064453 5.43216309 5.49605469 5.94921875 6.59375 C6.23489716 7.19168869 6.52057556 7.78962738 6.81491089 8.40568542 C7.44559325 9.72850281 8.07160034 11.05355641 8.69363403 12.38046265 C10.06231928 15.29934669 11.45355321 18.20729576 12.84342957 21.11613464 C13.61311537 22.72742624 14.38163979 24.33927303 15.14912415 25.95161438 C20.0098631 36.15227052 24.99193146 46.29356127 29.96865845 56.43798828 C31.53420648 59.62981538 33.09779097 62.82259733 34.66088867 66.015625 C35.65015968 68.03518965 36.6394961 70.05472226 37.62890625 72.07421875 C38.0670163 72.9691655 38.50512634 73.86411224 38.95651245 74.78617859 C42.59785795 82.2115392 46.30109694 89.60219389 50 97 C141.08 97.495 141.08 97.495 234 98 C232.88427087 112.50447868 232.88427087 112.50447868 232.24609375 118.41796875 C227.8757804 143.23113974 227.8757804 143.23113974 233.5625 166.375 C234.55443359 167.59316406 234.55443359 167.59316406 235.56640625 168.8359375 C237 171 237 171 236.94140625 173.015625 C235.75755456 175.51104682 234.1990606 177.30385549 232.375 179.375 C229.61030741 182.72897187 229.61030741 182.72897187 228.8125 186.875 C229.53379662 188.773149 230.25718138 190.6705086 230.984375 192.56640625 C234.95360193 203.13663015 234.95360193 203.13663015 234 208 C231.33749474 211.85508535 228.79998554 213.78963942 224.25463867 214.98486328 C222.81156047 215.12508525 221.36532659 215.2349182 219.91796875 215.3203125 C219.10739517 215.38985138 218.29682159 215.45939026 217.46168518 215.53103638 C214.70506359 215.75826053 211.94744753 215.94286793 209.1875 216.125 C207.15063303 216.27590054 205.1138517 216.42796054 203.07714844 216.58105469 C197.30848637 217.00333925 191.5374553 217.38003413 185.76531982 217.75134277 C181.92976343 218.00463834 178.09604415 218.27761646 174.26220703 218.55566406 C119.85409128 222.48366904 65.52572517 222.45448625 11 222 C11.00745743 220.9344841 11.01491486 219.8689682 11.02259827 218.77116394 C11.0872204 208.69379533 11.10411629 198.61730613 11.07515812 188.53975964 C11.06178277 183.35950492 11.06479621 178.18037363 11.10620117 173.00024414 C11.1455971 167.99407458 11.14071813 162.98966953 11.10607719 157.98348427 C11.10050962 156.08066213 11.11047576 154.17772456 11.13676643 152.27507591 C11.43962779 139.41789474 11.43962779 139.41789474 5.36889648 128.5559082 C4.11338234 127.38364433 4.11338234 127.38364433 2.83250427 126.18769836 C1 124 1 124 0.97694397 121.71525574 C1.85445029 119.38629817 2.8549765 117.40912315 4.04174805 115.23457336 C6.33020341 110.80820424 6.51619167 107.1597658 6.33203125 102.24682617 C6.31614456 101.42542994 6.30025787 100.60403372 6.28388977 99.7577467 C6.05837651 90.50464028 5.39420278 81.27721213 4.6875 72.05078125 C4.55229175 70.21385149 4.41778512 68.37686996 4.28393555 66.5398407 C3.93470669 61.7669352 3.57781559 56.99463835 3.21862793 52.22247314 C2.64217024 44.54972799 2.07643162 36.87619241 1.51309204 29.20247459 C1.3165789 26.54347242 1.11596104 23.88480418 0.91479492 21.22615051 C0.79333787 19.58998483 0.67199396 17.95381075 0.55078125 16.31762695 C0.49467682 15.59077698 0.43857239 14.863927 0.38076782 14.11505127 C0.03576733 9.39753263 -0.04679003 4.73033561 0 0 Z " transform="translate(212,258)" style="fill: #9F8C53;"/><path d="M0 0 C2.91326551 0.01259069 5.82589128 -0.02596302 8.73901367 -0.05380249 C10.705188 -0.03585827 12.6713392 -0.01511811 14.63745117 0.00869751 C15.63389648 -0.01063843 16.6303418 -0.02997437 17.65698242 -0.04989624 C23.28998604 0.06172206 26.30761019 0.69272457 30.30932617 4.79776001 C30.9385498 5.51995728 31.56777344 6.24215454 32.21606445 6.98623657 C34.74052326 9.82839705 37.3744976 11.43862786 40.63745117 13.38369751 C41.7022168 14.03080688 42.76698242 14.67791626 43.86401367 15.34463501 C51.3228625 19.28690499 59.28883327 20.77325577 67.50854492 18.23916626 C72.25664838 15.91037375 74.50855155 13.32164351 77.26635742 8.86026001 C79.94604442 5.43950225 81.30331606 4.17691909 85.57543945 3.16348267 C89.7945525 2.82663785 93.98011813 3.03821276 98.19995117 3.25869751 C99.66274842 3.29176973 101.12565186 3.32045097 102.58862305 3.34463501 C114.49396676 3.64398699 114.49396676 3.64398699 119.01245117 6.00869751 C120.6939438 8.20456445 122.06749673 10.26114626 123.44995117 12.63369751 C124.08175293 13.68182617 124.08175293 13.68182617 124.72631836 14.75112915 C126.17103812 17.1611561 127.59224706 19.58415016 129.01245117 22.00869751 C130.10216949 23.84861556 131.19201842 25.68845624 132.28198242 27.52822876 C143.3482149 46.29462301 153.95049021 65.32399371 164.38745117 84.44619751 C164.95343018 85.47744751 165.51940918 86.50869751 166.10253906 87.57119751 C166.61679443 88.51865845 167.1310498 89.46611938 167.66088867 90.44229126 C168.11641113 91.27816772 168.57193359 92.11404419 169.04125977 92.97525024 C170.01245117 95.00869751 170.01245117 95.00869751 170.01245117 97.00869751 C123.40246769 98.23779795 76.79493922 98.13119279 30.17270446 98.08072412 C19.43899614 98.06931688 8.70528699 98.06399108 -2.02842593 98.05902112 C-24.014807 98.04871252 -46.00117712 98.03125361 -67.98754883 98.00869751 C-69.74654396 94.3581731 -71.50523122 90.70750054 -73.26365662 87.05670166 C-73.85950287 85.81972432 -74.45542728 84.58278463 -75.05143738 83.34588623 C-78.73547687 75.70024926 -82.40689078 68.04890224 -86.05004883 60.38369751 C-89.68876998 52.73962553 -93.39221163 45.12900281 -97.12036133 37.52822876 C-98.04215507 35.64688117 -98.96394869 33.76553351 -99.88574219 31.88418579 C-101.7310577 28.11862957 -103.58174105 24.35576976 -105.43505859 20.59414673 C-106.28997319 18.85090732 -107.14471714 17.10758421 -107.99926758 15.36416626 C-108.60310776 14.14392509 -108.60310776 14.14392509 -109.21914673 12.89903259 C-111.98754883 7.23580915 -111.98754883 7.23580915 -111.98754883 5.00869751 C-60.96206965 2.10919217 -60.96206965 2.10919217 -37.35101318 0.95004272 C-35.63939008 0.86565877 -33.92783807 0.77981713 -32.21636963 0.69235229 C-21.46758667 0.14560423 -10.76230832 -0.08064022 0 0 Z " transform="translate(331.987548828125,251.99130249023438)" style="fill: #AC9762;"/><path d="M0 0 C0.33 0 0.66 0 1 0 C1.78684068 4.96612563 2.18144008 9.85029676 2.375 14.875 C2.74082304 23.00621145 3.45283729 31.08291279 4.23934937 39.18331909 C4.8722898 45.78479131 5.44355729 52.39169713 6 59 C6.10592468 60.24901093 6.10592468 60.24901093 6.21398926 61.52325439 C6.652157 66.76188917 7.04458571 72.0014305 7.38723755 77.24719238 C7.50263664 78.93628301 7.62968126 80.62462475 7.76925659 82.31188965 C8.56423481 92.05131648 8.7245684 98.96793829 3.23022461 107.52612305 C1.76411074 109.94106185 1.76411074 109.94106185 2.21508789 112.67211914 C3.18170427 115.53889585 4.586908 117.41351878 6.5 119.75 C7.1290625 120.52859375 7.758125 121.3071875 8.40625 122.109375 C9.24063385 123.0991833 10.0845993 124.0845993 11 125 C11.09511266 127.64738089 11.12555635 130.26859001 11.11352539 132.91625977 C11.11367142 133.74545929 11.11381744 134.57465881 11.1139679 135.4289856 C11.11326851 138.18315198 11.10547493 140.93725161 11.09765625 143.69140625 C11.09579216 145.59569766 11.09436822 147.49998955 11.09336853 149.40428162 C11.08954263 154.42667963 11.07971173 159.44904892 11.06866455 164.47143555 C11.05845198 169.5922812 11.05387124 174.71313148 11.04882812 179.83398438 C11.03808953 189.88933557 11.02101224 199.9446654 11 210 C6.3244552 210.02046959 1.64893788 210.03500777 -3.02664185 210.04463196 C-4.60888118 210.04865468 -6.19111763 210.05414928 -7.77334595 210.06129456 C-21.75786261 210.12274968 -35.64936326 209.58802159 -49.6015625 208.62890625 C-51.12399438 208.52577458 -52.64645688 208.42309418 -54.16894531 208.32080078 C-54.95112427 208.26821106 -55.73330322 208.21562134 -56.53918457 208.16143799 C-60.0387847 207.93185214 -63.53943269 207.72077564 -67.04016113 207.50920105 C-86.77179687 206.31393501 -106.45953853 204.89991713 -126.125 202.875 C-126.96840942 202.78873352 -127.81181885 202.70246704 -128.68078613 202.61358643 C-131.04038046 202.36997375 -133.39922022 202.12030158 -135.7578125 201.8671875 C-136.45244598 201.79437561 -137.14707947 201.72156372 -137.86276245 201.64654541 C-140.73598314 201.3289084 -143.24563973 200.91812009 -146 200 C-145.835 199.030625 -145.67 198.06125 -145.5 197.0625 C-145.38398438 196.10537109 -145.38398438 196.10537109 -145.265625 195.12890625 C-145 193 -145 193 -144.546875 190.77734375 C-144.20605975 188.16293205 -144.15799675 186.51264462 -145 184 C-148.33133856 181.05191277 -152.10186334 179.10582986 -156 177 C-157.41382465 176.04699533 -158.81336692 175.07189405 -160.1875 174.0625 C-161.115625 173.381875 -162.04375 172.70125 -163 172 C-162.60167969 171.28714844 -162.20335937 170.57429687 -161.79296875 169.83984375 C-161.26316406 168.88207031 -160.73335937 167.92429687 -160.1875 166.9375 C-159.66542969 165.99777344 -159.14335937 165.05804688 -158.60546875 164.08984375 C-155.07765192 157.30029847 -153.47469073 152.26739902 -153.5625 144.6875 C-153.56842163 143.34498169 -153.56842163 143.34498169 -153.57446289 141.9753418 C-153.77482497 132.16095348 -155.3669636 122.58186609 -157.02734375 112.92578125 C-157.93604226 107.63121277 -158.53643299 102.3496457 -159 97 C-110.94271713 86.49912907 -110.94271713 86.49912907 -94 84 C-93.04061523 83.85336914 -92.08123047 83.70673828 -91.09277344 83.55566406 C-72.58328614 80.78905796 -52.56446528 78.66377725 -34 82 C-33.81642189 80.92212723 -33.81642189 80.92212723 -33.62913513 79.82247925 C-32.99273728 76.96741738 -32.08393733 74.52697096 -30.93383789 71.84033203 C-30.50571304 70.83382599 -30.0775882 69.82731995 -29.63648987 68.79031372 C-29.16992477 67.70708832 -28.70335968 66.62386292 -28.22265625 65.5078125 C-27.7372789 64.3708493 -27.25190155 63.23388611 -26.7518158 62.06246948 C-25.45542683 59.02847347 -24.15484693 55.99631959 -22.85229492 52.96496582 C-21.56635792 49.96914999 -20.28649322 46.97074204 -19.00585938 43.97265625 C-12.7280748 29.2900758 -6.38643651 14.63562279 0 0 Z " transform="translate(206,269)" style="fill: #9F8C53;"/><path d="M0 0 C-12.0363889 29.12307432 -24.34311931 58.1410681 -37 87 C-38.31226563 86.96519531 -39.62453125 86.93039062 -40.9765625 86.89453125 C-78.53273556 86.22290626 -115.08004524 94.05163986 -151.60546875 101.89453125 C-153.28459099 102.25454224 -153.28459099 102.25454224 -154.99763489 102.62182617 C-159.56717515 103.60253935 -164.13639732 104.58458959 -168.70385742 105.57495117 C-172.10740297 106.31198698 -175.51251458 107.04137284 -178.91796875 107.76953125 C-179.9460112 107.99445755 -180.97405365 108.21938385 -182.0332489 108.4511261 C-186.76419451 109.45696419 -191.13041903 110.29420492 -196 110 C-196.29104468 102.94644657 -195.19622456 96.4177557 -193.875 89.5 C-193.65271729 88.32107178 -193.43043457 87.14214355 -193.20141602 85.92749023 C-184.7266561 42.06936095 -184.7266561 42.06936095 -177 33 C-173.9860635 31.41955923 -170.83881053 30.57236182 -167.5625 29.6875 C-166.57459473 29.40463135 -165.58668945 29.1217627 -164.56884766 28.83032227 C-136.6790468 21.02159774 -108.34355038 14.90410537 -79.9140625 9.44140625 C-79.23725937 9.31123108 -78.56045624 9.18105591 -77.86314392 9.04693604 C-74.49217488 8.39922487 -71.12048487 7.75577907 -67.74731445 7.11962891 C-61.84389827 5.99434759 -56.01803638 4.80644428 -50.22436523 3.21044922 C-34.10902521 -1.1975521 -16.57920851 -0.06797079 0 0 Z " transform="translate(205,258)" style="fill: #AC9762;"/><path d="M0 0 C3 1 3 1 4.11572266 2.66723633 C4.4616748 3.38161865 4.80762695 4.09600098 5.1640625 4.83203125 C5.55980469 5.62561035 5.95554688 6.41918945 6.36328125 7.23681641 C6.77964844 8.08679199 7.19601563 8.93676758 7.625 9.8125 C13.8118845 23.13052375 13.8118845 23.13052375 24 33 C24 33.66 24 34.32 24 35 C9.59638819 38.23554675 -4.84840386 41.18644266 -19.34985352 43.94384766 C-27.27895515 45.45456473 -27.27895515 45.45456473 -35.1640625 47.17578125 C-39 48 -39 48 -43 48 C-41.50791806 43.70023698 -39.26356232 40.16869653 -36.625 36.5 C-36.19018311 35.89341553 -35.75536621 35.28683105 -35.30737305 34.66186523 C-30.38811392 27.95188799 -24.77484565 21.97255792 -19 16 C-18.37480469 15.32324219 -17.74960938 14.64648438 -17.10546875 13.94921875 C-12.1022154 8.65380462 -6.22485729 3.78587812 0 0 Z " transform="translate(135,221)" style="fill: #FDC061;"/><path d="M0 0 C0 0.66 0 1.32 0 2 C1.59736812 3.69291164 3.25515706 5.32900476 4.9375 6.9375 C10.42172132 12.29043131 15.2491117 17.98327637 20 24 C20.90564481 25.09402958 21.81328151 26.18641258 22.72265625 27.27734375 C30.82163584 37.10444067 40.22573518 48.68162447 40 62 C39.67 62.66 39.34 63.32 39 64 C35.41980688 64.34097077 33.31968446 64.15644133 30.0625 62.5625 C25.46619846 58.71661504 22.18092253 54.05810027 18.71557617 49.19897461 C14.9718105 44.04948937 10.84154213 39.52947062 6.3125 35.0625 C5.60625488 34.36157227 4.90000977 33.66064453 4.17236328 32.93847656 C-0.4187291 28.42994651 -5.13333661 24.20476475 -10.19921875 20.23046875 C-14.32284751 16.94651893 -18.2749501 13.46658015 -22.23095703 9.98339844 C-25.00789842 7.57039804 -27.5749662 5.40535785 -31 4 C-6.51468625 -2.17156208 -6.51468625 -2.17156208 0 0 Z " transform="translate(250,85)" style="fill: #DC8B4A;"/><path d="M0 0 C2.25253584 0.0648636 4.50314069 0.20252325 6.75 0.375 C7.98234375 0.46523437 9.2146875 0.55546875 10.484375 0.6484375 C14 1 14 1 16.3984375 1.5078125 C20.20348 2.2276854 24.01135859 2.32870555 27.875 2.5 C33.31494204 2.74357949 38.62017152 3.13922744 44 4 C45.69548057 8.91844804 43.95554043 12.37543736 41.921875 16.86328125 C41.4310141 17.98950142 41.4310141 17.98950142 40.93023682 19.13847351 C39.88256266 21.53549238 38.81695666 23.92401035 37.75 26.3125 C36.70126001 28.69185 35.65627473 31.07281147 34.61260986 33.45439148 C33.96305114 34.93312848 33.30991781 36.41030257 32.65252686 37.88557434 C30.59120089 42.5339609 28.74711275 47.22422379 27 52 C21.75680077 50.93630985 20.25775021 47.83227689 17.28125 43.55078125 C-2.04112275 14.03331445 -2.04112275 14.03331445 -1 1 C-0.67 0.67 -0.34 0.34 0 0 Z " transform="translate(112,128)" style="fill: #8E221F;"/><path d="M0 0 C11.38873842 -0.41497427 22.72677711 -0.68998972 32 7 C34.88590765 9.80996271 35.88518115 11.32384457 36.5625 15.3125 C35.6368244 21.38081782 32.57952208 25.84122407 28 29.875 C22.92583952 33.46919701 19.26328029 34.62632803 13 34 C3.20689024 30.84324667 -4.72580956 25.0438339 -11 17 C-10.37351562 16.10796875 -9.74703125 15.2159375 -9.1015625 14.296875 C-8.27590274 13.11468035 -7.45038961 11.93238328 -6.625 10.75 C-6.2125 10.16347656 -5.8 9.57695312 -5.375 8.97265625 C-3.35295912 6.07004918 -1.45533455 3.23052285 0 0 Z " transform="translate(374,233)" style="fill: #FDC061;"/><path d="M0 0 C4.39301079 1.44549436 7.55347246 3.82217695 11 6.8125 C11.84377197 7.538927 11.84377197 7.538927 12.70458984 8.2800293 C30.00938054 23.37902446 48.50240391 42.77094627 56 65 C56 66.32 56 67.64 56 69 C48.52 66.79 48.52 66.79 46 64 C45.40602112 61.85986235 45.01971896 59.70994912 44.609375 57.52734375 C42.59876972 49.18848723 37.40604933 42.45977081 32 36 C31.24332031 35.03707031 30.48664063 34.07414062 29.70703125 33.08203125 C26.89429265 29.71460827 23.66273199 27.09400448 20.1875 24.4375 C19.57092529 23.96151367 18.95435059 23.48552734 18.3190918 22.99511719 C14.0256469 19.71199417 9.78946287 16.53028227 5 14 C4.01 14.33 3.02 14.66 2 15 C1.67 25.89 1.34 36.78 1 48 C-14 47 -14 47 -19 46 C-17.11060916 38.45517821 -14.73508841 31.30429421 -11.75 24.125 C-11.3588501 23.1747998 -10.9677002 22.22459961 -10.56469727 21.24560547 C-7.48593508 13.88935964 -4.03598317 6.87804205 0 0 Z " transform="translate(281,32)" style="fill: #FABC60;"/><path d="M0 0 C9.30801465 0.21255224 18.58595322 1.48193907 27.8046875 2.70703125 C29.74985031 2.96018403 31.6950132 3.21333624 33.64017963 3.46646118 C36.35799586 3.82119039 39.07530961 4.17969068 41.79263687 4.53814316 C47.39132067 5.27578454 52.9909723 6.00607698 58.59048653 6.73738289 C59.96833252 6.91741662 61.34615422 7.09763638 62.72395134 7.27804375 C70.58079778 8.30665857 78.43889532 9.31623747 86.30859375 10.2421875 C87.02047852 10.32610245 87.73236328 10.4100174 88.46582031 10.49647522 C89.14080566 10.57602951 89.81579102 10.6555838 90.51123047 10.73754883 C128.18140016 15.19651625 128.18140016 15.19651625 137 20 C137 21.32 137 22.64 137 24 C129.15057069 23.35660415 121.42897324 22.17180704 113.66015625 20.9140625 C112.81445068 20.77790527 111.96874512 20.64174805 111.09741211 20.50146484 C109.42176916 20.23018159 107.74626225 19.95802291 106.07156372 19.68096924 C92.69068919 17.46947411 79.27783817 15.73346435 65.8125 14.125 C62.59509384 13.73669929 59.37784271 13.34713114 56.16059875 12.95748901 C53.98737631 12.69435089 51.81410767 12.43159399 49.64079285 12.16921997 C38.73586741 10.85163019 27.83626915 9.49244551 16.9375 8.125 C15.20353367 7.90770074 13.46956562 7.69041514 11.7355957 7.47314453 C7.82364489 6.98277608 3.91178936 6.49165467 0 6 C-0.38218767 4.34385343 -0.71395102 2.67542976 -1 1 C-0.67 0.67 -0.34 0.34 0 0 Z " transform="translate(292,414)" style="fill: #891E1C;"/><path d="M0 0 C0.825 0.00451172 1.65 0.00902344 2.5 0.01367188 C4.45836787 0.02505773 6.41669651 0.04296039 8.375 0.0625 C8.9375 2 8.9375 2 9.375 4.0625 C7.70357575 5.73392425 5.60263979 5.36828362 3.30151367 5.52514648 C1.66476433 5.63971947 1.66476433 5.63971947 -0.00505066 5.75660706 C-1.20607925 5.83563766 -2.40710785 5.91466827 -3.64453125 5.99609375 C-5.51924858 6.12436806 -5.51924858 6.12436806 -7.43183899 6.25523376 C-11.49583095 6.53070941 -15.56026843 6.79822413 -19.625 7.0625 C-20.62191486 7.12756618 -20.62191486 7.12756618 -21.63896942 7.19394684 C-30.46989197 7.76971728 -39.30202084 8.32439759 -48.13500977 8.86743164 C-50.92549432 9.03906211 -53.71584865 9.21261465 -56.50610352 9.38793945 C-104.09289494 12.37697039 -104.09289494 12.37697039 -123.625 12.0625 C-124.1875 10.125 -124.1875 10.125 -124.625 8.0625 C-122.97765035 6.41515035 -120.98472246 6.75882945 -118.7109375 6.59765625 C-117.65664551 6.52095703 -116.60235352 6.44425781 -115.51611328 6.36523438 C-113.77563721 6.24631836 -113.77563721 6.24631836 -112 6.125 C-110.78940918 6.03927734 -109.57881836 5.95355469 -108.33154297 5.86523438 C-104.42975183 5.59163469 -100.52747759 5.32611555 -96.625 5.0625 C-94.78325195 4.93657471 -94.78325195 4.93657471 -92.90429688 4.80810547 C-73.68310923 3.50128976 -54.45225277 2.41712459 -35.21316528 1.41401672 C-31.43850965 1.21623564 -27.66478956 1.00808868 -23.89160156 0.78393555 C-15.92033762 0.31355451 -7.98891306 -0.08861422 0 0 Z " transform="translate(178.625,426.9375)" style="fill: #8A1F1D;"/><path d="M0 0 C32.60929673 -0.14584768 65.20615357 0.08820065 97.8125 0.5 C98.75962986 0.51195782 99.70675972 0.52391563 100.68259048 0.53623581 C112.45513388 0.68537059 124.2275985 0.8400613 136 1 C135.67 2.65 135.34 4.3 135 6 C117.56312055 6.04667308 100.12626053 6.08196577 82.68933296 6.10362434 C74.59348592 6.11394706 66.49767764 6.12802632 58.40185547 6.15087891 C51.34743438 6.17078241 44.29304136 6.18370919 37.23859298 6.18817699 C33.50159792 6.19078954 29.76468316 6.19695067 26.02771378 6.21146011 C21.86104993 6.22750743 17.69452665 6.22798165 13.52783203 6.22705078 C12.28202362 6.23424133 11.03621521 6.24143188 9.75265503 6.24884033 C8.62240906 6.246091 7.49216309 6.24334167 6.32766724 6.24050903 C5.34134874 6.24235262 4.35503025 6.24419621 3.33882332 6.24609566 C1 6 1 6 -1 4 C-0.625 1.875 -0.625 1.875 0 0 Z " transform="translate(290,449)" style="fill: #891C1B;"/><path d="M0 0 C11.1525492 6.72693444 19.70563614 15.96425966 25 28 C25.26052352 30.8576174 25.38973612 32.33515603 23.9375 34.8125 C20.69841607 36.79774499 18.73499687 36.61229457 15 36 C12.01142604 34.02995349 9.57797309 31.47021215 7 29 C4.71061549 26.97286696 2.38756129 24.98602205 0.0625 23 C-0.54037842 22.48099121 -1.14325684 21.96198242 -1.7644043 21.42724609 C-5.89759011 17.88483538 -10.12703972 14.5180546 -14.5234375 11.3046875 C-15.01070312 10.87414062 -15.49796875 10.44359375 -16 10 C-16 9.34 -16 8.68 -16 8 C-10.72 5.36 -5.44 2.72 0 0 Z " transform="translate(205,94)" style="fill: #DC8B4A;"/><path d="M0 0 C14.83353283 7.41676641 27.56522981 20.7174208 34 36 C34 37.32 34 38.64 34 40 C30.67733908 38.90983339 27.37161793 37.78331648 24.08203125 36.59765625 C23.38400391 36.34693359 22.68597656 36.09621094 21.96679688 35.83789062 C20.54913219 35.32763416 19.13243348 34.81468452 17.71679688 34.29882812 C11.84207779 32.1972589 6.07589837 30.65706319 0 29 C0 19.43 0 9.86 0 0 Z " transform="translate(287,53)" style="fill: #F5E49D;"/><path d="M0 0 C1.56240032 -0.02730408 3.1249427 -0.04653226 4.6875 -0.0625 C5.55761719 -0.07410156 6.42773438 -0.08570313 7.32421875 -0.09765625 C10 0 10 0 12.28125 0.46875 C16.10709286 1.21632849 19.92460942 1.36370593 23.8125 1.5625 C24.99489258 1.62727539 24.99489258 1.62727539 26.20117188 1.69335938 C28.13394215 1.79878321 30.06695026 1.89983094 32 2 C29.66737643 9.36985054 26.8202139 16.44438679 23.8125 23.5625 C23.11737305 25.21862305 23.11737305 25.21862305 22.40820312 26.90820312 C21.27506147 29.60671574 20.1389372 32.30392958 19 35 C18.34 35 17.68 35 17 35 C15.31341079 32.46708274 13.76321281 29.94713904 12.25 27.3125 C11.80406494 26.54389648 11.35812988 25.77529297 10.89868164 24.98339844 C1.34808299 8.30055595 1.34808299 8.30055595 0 0 Z " transform="translate(118,135)" style="fill: #F7E79F;"/><path d="M0 0 C1.30813471 0.00762863 1.30813471 0.00762863 2.64269638 0.01541138 C3.5439613 0.01848297 4.44522621 0.02155457 5.37380219 0.02471924 C14.52626499 0.08693054 23.64702507 0.50820965 32.78429794 1.00759888 C34.50446871 1.09773389 36.22466384 1.18740509 37.94488144 1.27664185 C42.39677289 1.5087954 46.84831291 1.74709718 51.29980087 1.98684692 C55.87255625 2.23198094 60.44562767 2.47106986 65.01867294 2.71072388 C73.93565222 3.17889019 82.85227072 3.65357643 91.76867294 4.13259888 C92.15086061 5.78874545 92.48262396 7.45716912 92.76867294 9.13259888 C90.93530881 10.96596301 88.10857561 10.30678947 85.64367294 10.32009888 C76.37610887 10.30938369 67.15343643 9.62494878 57.91198349 8.98709106 C44.50184934 8.07002637 31.08102924 7.43695776 17.65368271 6.83035278 C9.6619832 6.46337066 1.72009574 6.05604263 -6.23132706 5.13259888 C-6.79382706 3.19509888 -6.79382706 3.19509888 -7.23132706 1.13259888 C-5.32567326 -0.77305492 -2.53377781 0.00436451 0 0 Z " transform="translate(82.23132705688477,452.8674011230469)" style="fill: #8A201D;"/><path d="M0 0 C1.65 0.33 3.3 0.66 5 1 C4.44739177 7.90760292 2.50040023 11.84056344 -2.75 16.375 C-7.64303424 18.82151712 -11.74982761 18.75005746 -17 17 C-22.89462325 15.99869767 -28.37355704 15.66951183 -33.51171875 19.0546875 C-35.29270043 20.35427562 -37.02328845 21.70582443 -38.75585938 23.0690918 C-45.89488063 28.64868558 -54.62245662 33.06277017 -63.9296875 32.49609375 C-69.14837754 31.24557746 -73.06101679 28.40847482 -76 24 C-75.625 21.8125 -75.625 21.8125 -75 20 C-73.68 20 -72.36 20 -71 20 C-70.29875 20.825 -69.5975 21.65 -68.875 22.5 C-65.33141666 25.58137682 -63.52969 25.85554224 -58.94140625 25.609375 C-50.52473161 23.86568145 -43.17780313 19.24718257 -36.875 13.5625 C-32.24455361 9.6250974 -28.80954947 9.17560113 -22.828125 9.58203125 C-20.36317511 9.94632633 -18.02845543 10.41576867 -15.625 11.0625 C-11.84657458 12.03967899 -9.71183113 12.1221815 -6 11 C-3.44329084 8.89071494 -2.3827838 6.92141962 -1.3125 3.8125 C-1.06113281 3.09707031 -0.80976563 2.38164062 -0.55078125 1.64453125 C-0.36902344 1.10183594 -0.18726563 0.55914062 0 0 Z " transform="translate(329,193)" style="fill: #8F211D;"/><path d="M0 0 C4.51617599 -0.07654536 8.59085217 -0.10228696 13 1 C13 1.66 13 2.32 13 3 C14.06734375 3.33644531 14.06734375 3.33644531 15.15625 3.6796875 C22.37065217 7.02923136 29.38684053 15.28308537 33.33984375 22.140625 C34.48598032 25.36879665 33.88275766 27.74058709 33 31 C30.26171875 31.72265625 30.26171875 31.72265625 27 32 C24.83203125 30.62109375 24.83203125 30.62109375 22.8125 28.4375 C22.04808594 27.6125 21.28367187 26.7875 20.49609375 25.9375 C16.72828975 21.50340202 13.14343347 16.94066165 9.59765625 12.328125 C6.92671414 8.86873096 4.08670191 5.58703324 1.14453125 2.35546875 C0 1 0 1 0 0 Z " transform="translate(272,85)" style="fill: #DC8B4A;"/><path d="M0 0 C0.85464844 -0.01417969 1.70929688 -0.02835938 2.58984375 -0.04296875 C5.20159303 0.20046444 6.81750652 0.8696732 9.0625 2.1875 C8.56724069 6.43682491 6.15454166 8.46385912 3.1875 11.375 C2.30320312 12.25542969 1.41890625 13.13585937 0.5078125 14.04296875 C-2.92175049 17.05068454 -5.42517632 17.31181711 -9.82421875 17.28515625 C-10.76201172 17.28193359 -11.69980469 17.27871094 -12.66601562 17.27539062 C-13.64248047 17.26701172 -14.61894531 17.25863281 -15.625 17.25 C-16.61306641 17.24548828 -17.60113281 17.24097656 -18.61914062 17.23632812 C-21.05865474 17.22454303 -23.49804689 17.20809011 -25.9375 17.1875 C-26.2675 15.5375 -26.5975 13.8875 -26.9375 12.1875 C-19.39805492 5.9010286 -10.06552593 0.07568065 0 0 Z " transform="translate(299.9375,178.8125)" style="fill: #8E201D;"/><path d="M0 0 C1.22021851 -0.01389771 1.22021851 -0.01389771 2.46508789 -0.02807617 C6.75858774 -0.00530254 10.08740711 0.26215039 14 2.25 C13.67 3.9 13.34 5.55 13 7.25 C12.06486572 7.23428955 12.06486572 7.23428955 11.11083984 7.21826172 C-5.54629001 6.97578645 -20.55527016 7.98166475 -36.60644531 12.66088867 C-37.76418457 12.98923706 -37.76418457 12.98923706 -38.9453125 13.32421875 C-39.63125488 13.52619873 -40.31719727 13.72817871 -41.02392578 13.9362793 C-43.29464633 14.29677793 -44.82704623 13.9440452 -47 13.25 C-47 11.93 -47 10.61 -47 9.25 C-31.54979061 3.85338431 -16.42664263 0.11745621 0 0 Z " transform="translate(242,174.75)" style="fill: #90231E;"/><path d="M0 0 C0.01953125 2.26171875 0.01953125 2.26171875 -1 5 C-3.58620172 6.69556799 -6.43509737 7.70600658 -9.3125 8.8125 C-20.71837933 13.54756901 -30.40229968 18.94107281 -38 29 C-39.32 28.67 -40.64 28.34 -42 28 C-41.67845516 22.69451019 -38.79485032 19.41263518 -35 16 C-28.08635693 10.89621114 -20.73934244 6.66088171 -13 2.9375 C-12.38970947 2.6384375 -11.77941895 2.339375 -11.15063477 2.03125 C-7.28530099 0.25403617 -4.23640079 -0.30352262 0 0 Z " transform="translate(342,141)" style="fill: #8E201D;"/></svg>